<?xml version="1.0" encoding="utf-8"?>
<!-- Generator: Adobe Illustrator 19.0.0, SVG Export Plug-In . SVG Version: 6.00 Build 0)  -->
<svg version="1.1" id="Camada_1" xmlns="http://www.w3.org/2000/svg" xmlns:xlink="http://www.w3.org/1999/xlink" x="0px" y="0px"
	 viewBox="0 0 512 512" style="enable-background:new 0 0 512 512;" xml:space="preserve">
<style type="text/css">
	.st0{fill:#FFFFFF;}
	.st1{fill:#B9D263;}
	.st2{fill:#8E5358;}
	.st3{fill:#89BF45;}
	.st4{fill:#BE2428;}
	.st5{fill:#613422;}
	.st6{fill:#AECC53;}
	.st7{fill:#A1C7C7;}
	.st8{fill:#74A440;}
	.st9{fill:#B15E3D;}
	.st10{fill:#944C36;}
	.st11{fill:#FED87D;stroke:#AD1917;stroke-width:2.1466;stroke-miterlimit:10;}
</style>
<g id="XMLID_216_">
	<path id="XMLID_225_" class="st0" d="M270.2,483.5c-17.6,0-32.8-0.6-46.3-9.3c-2.1-1.3-3.4-0.4-5.2,0.7
		c-14.4,8.1-30.3,11.3-46.4,9.9c-17.9-1.5-29.2-12.5-34.4-29.4c-1.4-4.4-3.5-6.7-7.7-8.3c-28.5-10.7-55.3-24.4-79.3-43.3
		c-14.7-11.6-26-25.6-29.1-44.6c-2.1-12.7-1.2-25.1,6.2-36.2c1-1.4,1.6-3.2,2.1-4.8c2.3-7.4,3.3-8.2,11.1-8.7
		c4.9-0.3,9.9,0.2,14.8-0.8c5.6-1.2,5.9-1.5,3-6.3c-6.5-10.9-11.2-22.3-12.8-35.1c-1.8-15.2,1.5-28.9,11-40.8
		c2.9-3.6,2.7-6.1,0.8-9.9c-10.5-21.2-17.6-43.5-23.4-66.4c-1.2-4.8-0.3-7,4.8-8.3c9.5-2.5,16-8.7,19-18.3c0.5-1.7,1-3.5,0.5-5.2
		c-1.4-5.3,0.9-8.7,5.5-10.5c4.6-1.9,7-5.1,8.6-9.9c4.3-13.3,14.7-19.2,27.9-21.2c10.3-1.6,20.5-0.2,30.5,1.6
		c4.4,0.8,6.4-0.1,7.5-4.6c5.9-23,18.7-40.2,42.1-47.9c1.5-0.5,3.1-1.2,4.1-2.3c4.8-5.4,9.9-4.3,15.9,0.5
		c9.3,7.6,18.9,14.9,30.5,18.9c18,6.2,36.1,8.3,54.3,0.7c6-2.5,12.2-4.9,18.5-6.5c13.7-3.5,21.1,1,24.3,14.6c2,8.4,3.1,17,4.7,25.5
		c1.6,8.4,4,16.5,8.9,23.7c7.4,10.7,18.2,14.6,30.7,15c4.9,0.2,9.9-0.1,14.8,0.5c13.3,1.6,23.4,8.4,30.5,19.7
		c1.6,2.6,3.3,5.3,6.5,5.9c5.2,0.9,8.2,4.2,10.5,8.5c3.7,6.9,9.2,13,9.5,21.5c0,1.5,0.5,3,2.5,2.6c3.7-0.8,6.6,0.7,9.3,2.8
		c1.4,1,2.9,1.2,4.5,1c12.2-1.6,19.1,5.6,24.2,15.1c1.7,3.1,2.7,6.6,3.5,10c1.9,8.4,1.7,11.7-6.3,15.5c-7.3,3.5-9.5,11-11,18.4
		c-2.1,10.2-0.6,20.4,3,29.7c10.5,26.7-4.8,44.8-26,52.8c-8.3,3.2-12,7-12.6,16.1c-1.5,22.8-15.1,38.6-32.7,51.5
		c-5,3.6-10.5,6.6-15.8,9.8c-2,1.2-4.3,2.2-4.1,5c0.3,7.5-4.4,11.9-9.6,16.2c-8.9,7.3-18.2,14.1-25,23.5c-1.3,1.8-4.1,3.3-1.9,6.3
		c0.7,0.9-0.2,1.8-1,2.1c-4.4,1.7-5.8,5.9-8.1,9.5c-6.7,10.3-16.2,16.7-28.2,19.1C295.7,481.7,281.9,483.9,270.2,483.5z"/>
</g>
<g id="XMLID_1_">
	<g id="XMLID_258_">
		<path id="XMLID_377_" class="st1" d="M297,55.4c4.7-2.4,9.8-3.1,15-2.6c6.1,0.6,9.9,4.4,11.8,10.1c3.1,9,3.5,18.5,5.5,27.6
			c0.4,1.7,0.6,3.4,0.9,5.1c-1.1,1-0.9,2.3-0.7,3.5c1.3,8.3,3.6,16.2,8.6,23.1c6.8,9.4,23.7,12.3,33,5.7c16-0.7,29.2,4.3,38.1,18.4
			c0.8,1.3,2.1,2.4,1.9,4.1c-1.3,0-2.5,0.1-3.8,0c-14.1-1.3-22.2,7-25.8,14.5c-4.7,10.1-2.7,20.4,5.6,29.6c0.6,0.7,1,1.6,1.5,2.3
			c-7,5.2-12.4,12-18.4,18.1c-1.6-2.9,0.1-5.7,0.6-8.5c0.8-5.5,2.1-10.8,3.5-17.3c-1.4,1.1-2,1.4-2.3,1.9
			c-6.3,9.2-8.3,19.9-10.2,30.6c-0.2,1.1,0,2.2,1.1,2.9c-5.8,9.8-11.3,19.7-15,30.4c-1.1-0.2-2.1-0.5-2.9-1.4
			c-8.8-10.7-17.3-21.6-25.2-32.9c-5.8-8.3-9.2-18-15.2-26.1c-14.3-19.5-28.7-38.9-44-57.7C247.8,120.9,234.9,105,220,91
			c-3.7-3.5-7.1-8.1-12.9-8.9c-0.1-0.1-0.3-0.1-0.4-0.2c0.1,0.1,0.3,0.1,0.4,0.2c0.2,0.6,0.2,1.3,0.5,1.8
			c10.6,13.6,21.3,27.2,32,40.7c18.7,23.6,36.9,47.7,54.4,72.2c5.4,7.6,8.7,16.4,14.2,23.8c8,10.7,16.2,21.2,24.8,31.4
			c5.8,6.8,10.9,14.3,18.1,19.8c-0.3,8.2-4,15.3-7.3,23.4c-0.9-1.3-1.4-1.9-1.7-2.5c-5.5-12-12.6-23-21.7-32.6
			c-5.2-5.4-10.6-10.8-17.7-13.9l0,0c-0.3-1-1-1.1-1.9-1l0,0c0-0.7-0.4-0.9-1-1l0,0c-0.3-0.4-0.7-0.7-1-1.1c-7-4.7-14-9.4-20.9-14.1
			c0-5.4,0.2-10.7,0.1-16.1c-0.3-12.1-2.7-23.8-8.7-34.5c-8.3-14.8-20.6-24.4-37.7-27.2c-4.1-1.3-8.3-1.4-12.5-1.8
			c-10.9-1.8-21.8-3.5-32.1-7.9c1-1.1,2.3-0.9,3.5-0.8c11.2,1.4,22.4,2.8,33.5,4.3c6.3,0.9,12.6,2,18.9,3c-2.4-2.2-5.2-3.2-7.8-4.6
			c-10-5.5-20.9-7.3-32.2-7.6c-8.1-0.2-16,1.2-23.9,2.1c-12.4-5.5-21.6-14.3-27.3-26.7c-0.2-6.7,0.2-13.6-6.6-17.8
			c2.6-15.4,9-28.8,20.6-39.4c4.7-4.3,10-7.8,16-9.8c3.7-1.2,7.2-2.3,10.1-5.5c3.1-3.4,8.7-1.8,14,3.3c-0.7,0.4-0.7,0.7,0.1,0.9
			l-0.1-0.1c2.5,5.6,7.1,9.4,11.6,13.2c11.2,9.3,24.1,14.6,38.6,14.2c14.4-0.4,27.7-5.4,39.9-13.1C297.1,56.9,298.2,56.5,297,55.4z
			 M333.3,206.6c6.7-20.4,15.3-39.9,22.1-60.2C340.7,163.7,331.4,183.1,333.3,206.6z M274.3,128.8c7.8-19.2,17.6-37.5,25-56.7
			C283.7,87.8,274.1,106.2,274.3,128.8z M302.4,167.5c5.7-17.8,8.4-35.4,13.2-52.5C303,130.1,300.4,147.7,302.4,167.5z"/>
		<path id="XMLID_372_" class="st1" d="M144.5,441.6c-29.6-11-57.9-24.6-82.5-44.6c-16.3-13.3-27-30-26.6-52
			c0.2-7.9,2.2-15.3,6.6-21.9c0.8-1.2,1.7-2.2,2-3.7c1.4-8.2,2.3-9,10.4-9.2c0.4,0.5,0.7,1.3,1.1,1.4c7.8,1.6,15.6,1.5,23.5,0.7
			c7.7-0.8,14.2-4.8,21-8.1c12.2,3.8,23.2,2.3,32-7.8c0.4,1.2,0.9,2.4,1,3.6c1.3,11,7.2,19.7,13.8,28.9c0.8-3-1-4.7-1.5-6.7
			c-3-10.9-6.3-21.6-9.6-32.5c3.1-11.4,0.4-21.2-8.4-29.2c0.8-1.8,2.8-2.3,3.9-3.7c6.8-1,12.6,1.1,17.7,5.8
			c5.3,4.9,10.9,9.4,16.4,14.1c0.4,0.7,1.1,0.9,1.8,0.9c0.3,0.3,0.7,0.7,1,1c0.1,1.2,0.7,1.8,1.9,1.8l0.1,0
			c3.1,4.1,7.7,5.8,12.3,7.4c9.6,3.3,19.6-0.4,25.6-11.3c8.2-10.5,19-14.8,32.2-13.2c1.1,1.2,2.5,0.8,3.8,0.9
			c7.2,2.6,14.5,5.1,21.5,8.3c23,10.4,42.7,25.3,59.1,44.4c8.7,10,16.3,20.7,22,32.8c0.3,4.5-0.5,8.8-1.3,13.2
			c-1.4-0.1-2.2-1.1-3.1-1.9c-13.7-13.3-29.8-22.5-48.2-27.7c-12.1-3.4-24.4-6.5-36.7-0.7c-3.8-6.5-7.7-13-11.5-19.4
			c-0.1,8.8,3.2,16.2,7.7,23.2c-1.2,1.6-2.5,3.2-3.7,4.8c-0.1,0.3-0.1,0.6-0.1,0.9l0,0c-4.1,3.4-7.8,7.2-13.4,8.3
			c-3.9,0.8-7.5-1-11.2-0.7l0,0c-0.4-0.8-1.2-0.9-2-1c-3.2-1.7-6.3-3.5-9.5-5.2c-2.5-1.3-5-2.6-7.6-3.8c-7.6-3.7-11.5-1.7-15.9,8.2
			c-0.4,0.9-0.7,1.8-1.1,2.7c-16.4-3.3-32.9-6.8-49.4-9.9c-19.1-3.6-38.3-7.2-58-6.2c-1.4,0.1-3.2-0.9-4.2,1.3
			c0.7,0.2,1.3,0.4,1.9,0.5c26.4,5.4,52.9,10.8,79.3,16.1c9.2,1.8,18.2,4.9,27.6,5.7c-0.1,2.6-1.4,4.8-2.8,6.9
			c-7.5,10.7-17.9,16.9-30.5,19.7c-3.4,0.8-7.6,0.8-8.5,5.3c-2.4,11.3-3.8,22.7,1.9,33.5C144.9,429.5,144.1,435.5,144.5,441.6z
			 M227.6,344.1c-6.5-15.8-10.8-32.4-17.8-49.5C208.5,308.9,213.7,331.7,227.6,344.1z M136.9,358.6c-15.4,1-42.6,19-42.7,27.9
			C108.3,377.2,122.3,368.1,136.9,358.6z M166.9,297.4c-1.5,14.5,10.3,33.1,19.1,38.4C180.6,322.4,172.5,310.5,166.9,297.4z"/>
		<path id="XMLID_358_" class="st2" d="M345.4,362.9c0.8-4.4,1.6-8.7,1.3-13.2c0.9-5.1-0.4-9.9-2.6-14.5c-4.6-9.8-5.7-20-3-30.4
			c0.7-2.8,0.5-5.1-0.8-7.7c-8.8-17.5-20.3-33-34.3-46.6c-1.3-1.2-3.3-2.1-3.1-4.4c7.1,3.1,12.5,8.5,17.7,13.9
			c9.1,9.6,16.3,20.5,21.7,32.6c0.3,0.7,0.8,1.2,1.7,2.5c3.3-8.1,6.9-15.2,7.3-23.4c0.5-3.3-0.4-6.2-1.8-9.1
			c-1.1-2.4-2.3-4.9-1.6-7.7c3.7-10.8,9.2-20.7,15-30.4c2.9-2.9,5.1-6.3,7.4-9.6c6-6.2,11.4-12.9,18.4-18.1c1.2,0,2.1,0.5,3.1,1.1
			c10.8,6.3,22.8,4.5,31.6-4.1c2.6-2.5,3.4-6.1,6-8.3c1.8-0.2,3.7,0,5.4-1c3.9-2.3,7.3-1.8,10.4,1.5c1.1,1.2,2.5,1.5,4.3,1.1
			c6.4-1.5,12,0.7,16.5,5c6.7,6.3,9.5,14.6,10.6,23.6c0.4,3.3-1,5.6-3.9,6.7c-2.8,1.1-5.1,3-7.4,5c-3.9-0.7-5.9,1.8-7.1,4.7
			c-5.3,12.8-2.3,25,3.3,36.9c1.8,3.9,3,8.1,3.6,12.4c-1.8,0.2-1.5,1.6-1.7,2.9c-0.6,3.9-1.9,7.6-3.9,11
			c-6.3,11.2-16.5,17.8-27.3,23.9c-2.3,1.3-5.2,2-7,3.8c-2.3,2.3,1.6,4.8,0.7,7.5c0.4,16.5-6.8,29.8-17.8,41.4
			c-9.2,9.7-20.4,16.8-32.4,22.5c-5.4-5.6-11.8-10.2-17.8-15.2c-0.3-0.3-0.6-0.7-0.9-1l0,0c-0.8-1.3-1.7-2.6-2.5-3.9
			C352.1,369.9,347.5,367.4,345.4,362.9z M386.4,212c0.3,0.3,0.6,0.7,0.9,1c2.6,6,6.9,10.5,12,15c-0.1-6.1-5.7-12.9-11.9-15.1
			C387,212.7,386.7,212.4,386.4,212c-0.2,0-0.3-0.1-0.4-0.2C386.1,211.9,386.2,212,386.4,212z M372.1,243.4c0-0.1-0.1-0.2-0.1-0.3
			c0-0.1-0.2-0.1-0.2-0.1C371.9,243.1,372,243.2,372.1,243.4c0.3,0.3,0.6,0.6,0.9,1c3.7,7.3,8.9,13.6,13.6,20.2
			c-2.4-8.2-5.5-15.9-13.4-20.3C372.8,244,372.5,243.7,372.1,243.4z M371.2,313.6c-0.1-0.1-0.1-0.2-0.2-0.3c0-0.1-0.2,0-0.3-0.1
			C370.9,313.3,371,313.4,371.2,313.6c1.5,6.8,5.3,12.3,10,17.2C380.9,323.2,376.9,317.9,371.2,313.6z M413.9,306.9
			c7.3-2,14.1-5,20.9-8.1c-6.1-0.9-11.5,1.1-16.8,3.3C416,303,414.1,304.4,413.9,306.9c-0.5,0.1-0.9,0.2-1.3,0.3
			c0.1,0.1,0.2,0.4,0.2,0.3C413.2,307.4,413.5,307.2,413.9,306.9z M400.6,341.1c7.4-3.3,12.6-9.4,19.2-13.8
			C411.8,329.7,403.9,332.2,400.6,341.1c-0.3,0.4-1.2,0.5-0.3,1.2C400.4,341.9,400.5,341.5,400.6,341.1z M371.2,262.3
			c-0.1-0.1-0.3-0.3-0.4-0.4C370.9,262.1,371,262.2,371.2,262.3c3.9,8.3,10,15,15.6,22.1c-0.7-4.1-2.5-7.5-4.7-10.8
			C379.2,269.2,376.4,264.6,371.2,262.3z M385.3,357.3c1.2,0.2,1.5-0.4,1.8-0.9c5.4-8.9,10.1-18.2,12.8-28.4
			c3.6-13.5,6.3-27.2,3.3-41c-4.5-21,0.4-39.6,12.8-56.6c4.6-6.3,10.3-11.6,15.9-17.1c-5.5,1.6-10.7,3.8-14.6,8.1
			c-16.8,18.6-23.3,40.5-20,65.3c0.2,1.4,0.2,2.8,0.3,4.2c0.8,13-1.6,25.7-4.4,38.3C391.1,338.7,388.2,348,385.3,357.3z
			 M366.6,282.4c-0.4,0.3-0.7,0.5-1.1,0.8c5.1,7.1,10.2,14.3,15.3,21.4C378.6,295.5,374.1,287.9,366.6,282.4z M440.5,254.6
			c-7.7,0-15.4,0.1-20.8,6.3c0.2,0.5,0.4,0.9,0.6,1.4C427,259.8,433.8,257.2,440.5,254.6z M435.9,275.9c-11.3-0.7-20.8,3.1-21.1,8.2
			C421.6,281.4,428.2,278.8,435.9,275.9z M391.9,245.6c-0.9-10.9-4.4-16.3-11.5-17.9C384.5,233.4,388.3,238.6,391.9,245.6z
			 M426.1,240.6c7.1-2.2,14.1-4.4,21.2-6.6c-0.1-0.4-0.3-0.9-0.4-1.3C439.6,234.2,431.8,234.2,426.1,240.6z"/>
		<path id="XMLID_355_" class="st2" d="M219.3,149.6c4.2,0.3,8.4,0.5,12.5,1.8c4.8,3.2,10.2,5.4,14.6,9.3c20.3,18,27,41.9,28.9,67.8
			c-6-1.1-12-0.7-17.9,0.6c4.4-10.8,1.4-20.1-5.7-28.5c0.6-0.6,1.9-0.3,1.9-1.5c-2.3-0.5-4.5-0.9-6.7-1.4c-0.4-0.7-1.1-0.8-1.8-0.8
			l0,0.1c-2.2-2.4-5.2-2.7-8.1-3c-10.9-1-19.2,3.3-25.1,12.4c0-6.1,0-12.2,0-18.2c-5.9,9-5.7,18.9-5.8,28.8
			c-3.7-5.6-7.3-11.3-11.1-16.9c-3.2-4.8-6.9-9-13.4-9c0-7.8,0-15.7,0-23.5c-4.4,7.9-4.7,16.4-5.6,24.9c-3.2,2.8-7.3,4.4-9.6,8.2
			c-1.7,0.8-3.2,2-4.6,3.3c-3.1,2.9-5.6,6.5-9.7,8.2c-18.7-16.5-30.4-37.4-38.4-60.7c-0.6,6.2-0.4,12.1,1,18
			c4.6,19.3,16.7,33.5,30.8,46.4c-7,3.2-14.4,5-22,5.7c-11,1-21.4-1.7-32-4c-0.7-0.5-1.5-0.9-2.2-1.4c15.5-1.9,24.7-4.6,28.3-8.5
			c-12.2-1.9-22.7,1.7-32.6,8c-2.5,0.5-4.7,2.1-5.2,4.3c-0.9,3.7-3.8,5.2-6.3,7.1C61.8,204.7,54,181,48.2,156.5
			c-0.6-2.6,0-3,2.5-3.5c11.2-2.2,19.5-10.6,21.2-20.9c0.1-0.6,0.5-1.4,0.3-1.9c-2.9-7.3,2.6-9.1,7.4-11.4c2.7-1.3,4.2-2.8,4.9-6.1
			c2.4-12.3,14.8-21.3,29.6-22.1c10.6-0.6,21.1,0.7,31.5,3c6.9,4.2,6.5,11.1,6.6,17.8c-0.7,13.3,5.8,22.1,17.1,28.1
			c10.9,5.8,22.7,8.7,34.8,9.6C209,149.6,214.1,151.6,219.3,149.6z M152,182.5c0.3-12.6,2.2-24.1,2-36.7
			C148,158,146.6,171.6,152,182.5z"/>
		<path id="XMLID_352_" class="st3" d="M257.4,229.1c5.9-1.3,11.9-1.7,17.9-0.6c0.8,0.8,1.8,0.8,2.8,0.6c7,4.7,14,9.4,20.9,14.1
			c-0.8,1.4,0.4,1,1,1.1c0,0,0,0,0,0c0.3,0.3,0.7,0.7,1,1l0,0c0.3,1,1,1.2,1.9,1l0,0c-0.3,2.4,1.8,3.2,3.1,4.4
			c14,13.6,25.5,29.1,34.3,46.6c1.3,2.5,1.5,4.8,0.8,7.7c-2.7,10.4-1.6,20.6,3,30.4c2.2,4.6,3.5,9.3,2.6,14.5
			c-5.7-12-13.3-22.8-22-32.8c-16.5-19-36.1-34-59.1-44.4c-7-3.2-14.3-5.7-21.5-8.3c0-4.1,0-8.2,0-12.4c-2.4,3.6-4,7.3-3.8,11.4
			c-13.2-1.6-24,2.7-32.2,13.2c-0.3,0-0.6,0-1-0.1c-0.7-12.2-3.5-24-5.2-36c-1.7,2.9-2.3,5.9-2.4,9.1c-0.4,9.7,0.9,19,4.8,27.9
			c-4.3,4.8-10,5.9-16,6.6c-6.5,0.8-12.1-2.5-18.2-3.8c0,0-0.1,0-0.1,0c0-1.3-0.6-1.9-1.9-1.8c-0.3-0.3-0.7-0.7-1-1
			c-0.3-0.8-1-0.9-1.8-0.9c-5.5-4.7-11.1-9.2-16.4-14.1c-5.1-4.7-10.9-6.7-17.7-5.8c-8.4-3.4-16.6-7.4-26.5-8.8
			c2.7,4.2,8.2,2.8,9.3,7.3c-6.5,0.6-9.5,4.7-9.3,12.6c0.2,8.1-2.6,11.2-11.2,12.2c1.4-2.1,5.4-2.6,4.3-6c-2.1-7.2-0.8-13,6.3-17
			c-6.2,1.3-10.7,4.7-13.9,9.7c-5.8,9-6.6,21.1,4,32.7c-5.8,4.6-12.5,7.3-19.8,8.4c-5.2-8.8-10.5-17.6-13.1-27.6
			c-5.1-19.7-2.5-37.8,12-53.1c2.5-2,5.4-3.4,6.3-7.1c0.5-2.2,2.7-3.8,5.2-4.3c1.4,0.2,2.9,0.3,4.4,0.5c0.7,0.5,1.5,0.9,2.2,1.4
			c11.4,8.7,24.6,11,38.4,9.1c11.9-1.6,21.8-8.2,30-16.8c2.5-2.6,6.7-4.7,6.5-9.4c2.3-3.8,6.5-5.4,9.6-8.2c1.9-0.4,3.7-0.9,5.6-1.3
			c6.5,0,10.2,4.2,13.4,9c3.8,5.6,7.4,11.2,11.1,16.9c0.7,1.5,1.5,2.9,2.2,4.4c-0.1,0.9-0.1,1.7,1.1,1.9l0.1,0
			c1.1,6.3,6.4,9.5,10.5,13.2c7.6,6.7,21.8,5.7,28.8-3.7l0,0.1c0.4-0.2,0.7-0.5,1.1-0.7C252.3,231.1,254.8,230.1,257.4,229.1z
			 M175.3,211c-7.8,15.1-8.4,43.1-1.3,53.2C173.2,246.3,176.1,228.7,175.3,211z"/>
		<path id="XMLID_349_" class="st1" d="M357.8,379.1c6,5,12.3,9.6,17.8,15.2c2.8,7.8-1.7,12.4-7,16.9c-8.3,7.1-17.1,13.4-23.9,22.1
			c-3.4,4.4-6.4,9-8.9,13.9c-6.4,12.7-16.7,19.7-30.4,22.4c-21.2,4.1-42.4,5.8-63.8,1.5c-6.5-1.3-12-4.5-17.5-7.9
			c-1-0.9-1.9-1.7-2.9-2.6c-0.4-2.8-2.8-4.5-3.9-7c2.7-6.9,4-14,3.7-21.5c8.3-0.8,16.5-10,18.4-19c1.2-5.8,0.5-11.4-0.2-17.2
			c0-0.3-0.1-0.6-0.1-0.8c1.4-5.9,4.4-7.8,10.8-6.4c4.4,1,8.8,2.3,13.3,3.1c5.7,1.1,11.3,1.4,15.4-4.2c1.7-2.4,0.7-5.5,2.2-7.6
			c3.9-5.5,3.8-10.7,0.4-16.2l0,0c4.3,5.7,9.4,4.5,15.7,3.2c16-3.3,31.7-0.6,46.9,5.3c4.5,1.7,8.4,4.9,13.2,5.8l0,0
			C357.2,378.4,357.5,378.7,357.8,379.1z M235.6,438.2c2.6,1,4.2-0.1,5.8-0.6c12.1-3.4,24.2-6.8,36.3-10.3
			c16.6-4.9,34-6.3,50.3-12.3c7.1-2.6,14.2-5.2,20.9-8.8c1.1-0.6,2.6-1.5,2-2.8c-0.8-1.6-2.2-0.2-3.3,0.2
			c-6.8,2.5-13.5,5.1-20.3,7.6c-10.4,3.8-21.3,5-32.1,7.3c-12.4,2.7-24.7,6.1-36.8,10C250.8,431.1,242.9,433.3,235.6,438.2z"/>
		<path id="XMLID_157_" class="st4" d="M221,432.1c0.3,7.4-1.1,14.6-3.7,21.5c-1.2,1.9-2.4,3.8-3.5,5.8
			c-5.6,6.7-12.4,11.6-20.7,14.4c-17.6,3.5-32-1.4-42.5-16.4c-3.3-4.7-4.7-10.3-6.1-15.7c-0.4-6.1,0.4-12.1,2-18
			c4.6-10.6,11.7-18.7,22.6-22.9c8.4-3.1,16.9-2.8,25.4-0.8c1.5,1.5,4.3,1.1,5.6,3.6c-1.7,0-3.3,0.3-4.7-0.1
			c-8-2.1-13.6,1.3-17.5,7.8c-3.1,5.2-6.5,7.9-12.6,4.8c-0.6-0.3-1.4,0-3.4,0c3.3,1.9,5.5,3.4,7.9,4.5c6.1,2.7,13,4.7,18.7-3.4
			c1.2-1.8,3-3.3,4.6-4.7c7.1-6.1,15.5-5,20.9,2.4c3.7,5.1,5.1,11.1,7,16.9C220.9,431.8,220.9,432,221,432.1z"/>
		<path id="XMLID_156_" class="st4" d="M429.3,185.4c-2.7,2.3-3.5,5.8-6,8.3c-8.9,8.6-20.9,10.4-31.6,4.1c-1-0.6-1.9-1.1-3.1-1.1
			c-0.5-0.8-0.9-1.7-1.5-2.3c-8.3-9.2-10.3-19.5-5.6-29.6c3.5-7.6,11.7-15.8,25.8-14.5c1.2,0.1,2.5,0,3.8,0c0,0-0.1,0-0.1,0
			c0.1,0.6,0.5,0.8,1,0.8c1.3,0.6,2.6,1.2,4,1.8c-1.6,0.1-3.1,0.4-4.7,0.2c-4.4-0.5-7.8,1.2-9.9,5c-2,3.7-4.4,6-9.4,4.4
			c6.5,5.7,11.9,5.5,16.3-0.3c3.4-4.4,7.8-6,13.1-6c3.3,3.4,6.1,7.1,7.7,11.5C431,173.6,430,179.5,429.3,185.4z"/>
		<path id="XMLID_155_" class="st3" d="M297,55.4c1.2,1.1,0.1,1.6-0.7,2c-12.2,7.7-25.5,12.7-39.9,13.1
			c-14.5,0.4-27.4-4.9-38.6-14.2c-4.6-3.8-9.2-7.6-11.6-13.2c2.2-0.1,3.3,1.7,4.7,2.8c16.7,13.5,36,19.2,57.3,18.3
			c7.6-0.3,14.2-3.8,21.2-6.2C292,57.2,294.5,56.3,297,55.4z"/>
		<path id="XMLID_154_" class="st3" d="M371.1,127.8c-9.2,6.7-26.2,3.8-33-5.7c-5-6.9-7.3-14.8-8.6-23.1c-0.2-1.2-0.4-2.5,0.7-3.5
			c2.1,8.7,5.4,16.8,11.9,23.2C350.2,126.7,360.5,127.7,371.1,127.8z"/>
		<path id="XMLID_153_" class="st5" d="M425.8,330.4c0.9-2.7-3-5.2-0.7-7.5c1.8-1.8,4.7-2.5,7-3.8c10.7-6.1,20.9-12.8,27.3-23.9
			c2-3.5,3.3-7.1,3.9-11c0.2-1.2,0-2.6,1.7-2.9c1.7,13.5-4.3,23.4-14.7,31.1c-4.8,3.6-10.1,6.7-15.8,8
			C428.7,321.8,426.3,325.1,425.8,330.4z"/>
		<path id="XMLID_152_" class="st6" d="M74.4,307.9c7.3-1.1,14-3.8,19.8-8.4c1.9,1.5,4.2,2.5,5.8,4.5c-6.8,3.3-13.3,7.3-21,8.1
			c-7.9,0.9-15.7,1-23.5-0.7c-0.4-0.1-0.7-0.9-1.1-1.4C61.1,309.6,67.9,310.1,74.4,307.9z"/>
		<path id="XMLID_151_" class="st3" d="M421.5,156.1c-5.3,0-9.7,1.6-13.1,6c-4.4,5.8-9.9,6-16.3,0.3c5.1,1.6,7.5-0.7,9.4-4.4
			c2.1-3.8,5.5-5.4,9.9-5c1.5,0.2,3.1-0.1,4.7-0.2c2,0.5,4,0.7,5.9,1.5C424,155.3,422.5,155.7,421.5,156.1z"/>
		<path id="XMLID_150_" class="st7" d="M193.1,473.8c8.3-2.8,15.1-7.7,20.7-14.4c2.5,0.4,5,0.8,7.5,1.2c1,0.9,1.9,1.7,2.9,2.6
			c-6,6.4-14.3,7.8-22.3,9.5C199,473.3,196.1,474.2,193.1,473.8z"/>
		<path id="XMLID_149_" class="st5" d="M461.3,269c-5.5-11.9-8.5-24.1-3.3-36.9c1.2-2.9,3.2-5.4,7.1-4.7c-8.7,12-7.6,25.1-4.5,38.4
			C460.9,266.8,461.1,267.9,461.3,269z"/>
		<path id="XMLID_148_" class="st7" d="M429.3,185.4c0.7-5.9,1.7-11.8-0.1-17.8c5.1,4.5,5.5,10.5,5.5,16.7
			C433,185.5,431.1,185.2,429.3,185.4z"/>
		<path id="XMLID_147_" class="st1" d="M412.1,151.1c-0.5,0-1-0.1-1-0.8C411.7,150.2,411.9,150.6,412.1,151.1z"/>
		<path id="XMLID_146_" class="st3" d="M206.3,43.2c-0.8-0.2-0.8-0.5-0.1-0.9c0.1,0.2,0.2,0.4,0.3,0.6
			C206.4,42.9,206.3,43.1,206.3,43.2z"/>
		<path id="XMLID_145_" class="st6" d="M347.9,255c-0.7,2.8,0.4,5.3,1.6,7.7c1.4,2.9,2.3,5.9,1.8,9.1c-7.2-5.5-12.3-13-18.1-19.8
			c-8.6-10.2-16.9-20.7-24.8-31.4c-5.5-7.4-8.8-16.2-14.2-23.8c-17.5-24.5-35.7-48.6-54.4-72.2c-10.7-13.5-21.4-27.1-32-40.7
			c-0.4-0.5-0.4-1.2-0.5-1.8l0,0c5.8,0.7,9.2,5.4,12.9,8.9c14.9,14,27.8,29.9,40.7,45.8c15.3,18.8,29.6,38.2,44,57.7
			c6,8.1,9.4,17.8,15.2,26.1c7.9,11.4,16.4,22.2,25.2,32.9C345.8,254.5,346.8,254.8,347.9,255z"/>
		<path id="XMLID_144_" class="st5" d="M278.1,229.1c-1,0.2-2,0.2-2.8-0.6c-1.9-25.9-8.6-49.7-28.9-67.8c-4.4-3.9-9.8-6.2-14.6-9.3
			c17.1,2.8,29.3,12.4,37.7,27.2c6,10.6,8.4,22.3,8.7,34.5C278.3,218.4,278.1,223.8,278.1,229.1z"/>
		<path id="XMLID_143_" class="st5" d="M219.3,149.6c-5.1,2-10.3-0.1-15.3-0.4c-12.1-0.9-23.9-3.8-34.8-9.6
			c-11.3-6-17.8-14.8-17.1-28.1c5.7,12.4,14.9,21.2,27.3,26.7c2.4,1.8,5.1,2.8,7.9,3.6C197.5,146.1,208.4,147.8,219.3,149.6z"/>
		<path id="XMLID_142_" class="st6" d="M187.2,141.7c-2.8-0.8-5.5-1.8-7.9-3.6c8-0.9,15.8-2.3,23.9-2.1c11.3,0.3,22.1,2.1,32.2,7.6
			c2.6,1.4,5.3,2.4,7.8,4.6c-6.3-1-12.6-2.2-18.9-3c-11.2-1.5-22.4-2.9-33.5-4.3C189.6,140.8,188.2,140.6,187.2,141.7z"/>
		<path id="XMLID_141_" class="st6" d="M333.3,206.6c-1.8-23.4,7.4-42.8,22.1-60.2C348.6,166.6,339.9,186.2,333.3,206.6z"/>
		<path id="XMLID_140_" class="st6" d="M274.3,128.8c-0.2-22.7,9.4-41,25-56.7C291.8,91.4,282.1,109.6,274.3,128.8z"/>
		<path id="XMLID_139_" class="st6" d="M302.4,167.5c-2-19.8,0.6-37.5,13.2-52.5C310.7,132.1,308.1,149.7,302.4,167.5z"/>
		<path id="XMLID_138_" class="st6" d="M370.2,214.9c-2.3,3.3-4.5,6.7-7.4,9.6c-1.1-0.7-1.3-1.8-1.1-2.9c1.9-10.7,4-21.4,10.2-30.6
			c0.3-0.5,0.9-0.8,2.3-1.9c-1.3,6.4-2.6,11.8-3.5,17.3C370.3,209.2,368.6,212,370.2,214.9z"/>
		<path id="XMLID_137_" class="st2" d="M302.9,246.2c-0.9,0.3-1.6,0-1.9-1C301.9,245.1,302.6,245.3,302.9,246.2z"/>
		<path id="XMLID_136_" class="st2" d="M300.1,244.3c-0.7-0.1-1.8,0.3-1-1.1C299.4,243.6,299.7,244,300.1,244.3z"/>
		<path id="XMLID_135_" class="st2" d="M301,245.3c-0.3-0.3-0.7-0.7-1-1C300.6,244.4,301,244.6,301,245.3z"/>
		<path id="XMLID_134_" class="st6" d="M207.1,82.1c-0.1-0.1-0.3-0.1-0.4-0.2C206.8,82,206.9,82,207.1,82.1L207.1,82.1z"/>
		<path id="XMLID_320_" class="st3" d="M169.1,400.7c-11,4.3-18.1,12.3-22.6,22.9c-5.7-10.9-4.3-22.2-1.9-33.5
			c1-4.5,5.1-4.5,8.5-5.3c0.8,1.1,1.9,0.9,3,0.9c15.8,0.6,30.9-13,33.8-30.7c0.4-2.3,2.3-4.7,0.2-7.2c4.5-9.9,8.3-11.9,15.9-8.2
			c2.6,1.2,5.1,2.5,7.6,3.8c3.2,1.7,6.3,3.5,9.5,5.2c0.4,0.8,1.2,1,2,1c0,0,0,0,0,0c4.3,3.9,9.6,4.8,14.8,3.3
			c5.2-1.5,8.9-5.1,9.8-10.9l0,0c0.1-0.1,0.4-0.2,0.4-0.2c-0.1-0.2-0.2-0.5-0.3-0.7c1.2-1.6,2.5-3.2,3.7-4.8
			c1.6-0.9,2.8-2.2,3.8-3.7c12.4-5.8,24.6-2.6,36.7,0.7c18.4,5.1,34.5,14.4,48.2,27.7c0.9,0.9,1.7,1.9,3.1,1.9
			c2.1,4.5,6.6,7,9.1,11.2c0.8,1.3,1.6,2.6,2.5,3.9c-4.9-0.9-8.7-4-13.2-5.8c-15.2-5.9-30.9-8.5-46.9-5.3
			c-6.3,1.3-11.4,2.5-15.7-3.2c-0.2-0.3,0.4-1.3-0.7-1c0.2,0.3,0.5,0.7,0.7,1c3.5,5.5,3.6,10.8-0.4,16.2c-1.5,2.1-0.4,5.2-2.2,7.6
			c-4.1,5.6-9.7,5.2-15.4,4.2c-4.5-0.8-8.8-2.2-13.3-3.1c-6.3-1.4-9.4,0.5-10.8,6.4c-1.7-1.2-3.6-0.9-5.5-1c-17.5-0.2-35-0.1-52.3,2
			C177.1,396.8,172,396,169.1,400.7z M213.7,381.9c0.1,0.4,0.2,0.8,0.4,1.2c0.1-0.1,0.2-0.2,0.4-0.2
			C214.2,382.5,214,382.2,213.7,381.9c-4.8-9.6-9.6-19.1-14.3-28.7c-0.1,6.2,1.5,11.7,4.2,16.9C205.9,374.9,208.2,379.8,213.7,381.9
			z M270.6,384.5c0.3-0.3,0.6-0.5,1-0.8c-5.7-9.5-11.4-19.1-17.2-28.6C256.6,366.8,260.5,377.4,270.6,384.5z M242.2,383.7
			c-5.3-6.9-10.6-13.8-16-20.7c-0.4,0.3-0.8,0.6-1.2,0.9C228,372.6,233.1,379.7,242.2,383.7z"/>
		<path id="XMLID_129_" class="st4" d="M100,304c-1.5-2-3.9-3-5.8-4.5c-10.6-11.6-9.8-23.7-4-32.7c3.2-5,7.7-8.4,13.9-9.7
			c-7.2,3.9-8.5,9.8-6.3,17c1,3.5-2.9,3.9-4.3,6c8.6-1,11.4-4.1,11.2-12.2c-0.2-7.8,2.9-12,9.3-12.6c4.8,0.8,9.2,2.5,13.3,5.1
			c8.8,8,11.5,17.7,8.4,29.2c-1.2,2.2-2.5,4.5-3.7,6.7C123.2,306.4,112.2,307.9,100,304z"/>
		<path id="XMLID_128_" class="st6" d="M186.4,358.2c-9.4-0.9-18.4-3.9-27.6-5.7c-26.5-5.3-52.9-10.7-79.3-16.1
			c-0.6-0.1-1.2-0.3-1.9-0.5c1-2.2,2.8-1.3,4.2-1.3c19.6-1,38.8,2.5,58,6.2c16.5,3.1,32.9,6.6,49.4,9.9
			C188.2,353.1,188.4,356,186.4,358.2z"/>
		<path id="XMLID_127_" class="st6" d="M227.6,344.1c-13.9-12.4-19.1-35.2-17.8-49.5C216.8,311.7,221.1,328.3,227.6,344.1z"/>
		<path id="XMLID_126_" class="st6" d="M136.9,358.6c-14.5,9.5-28.6,18.6-42.7,27.9C94.2,377.6,121.5,359.6,136.9,358.6z"/>
		<path id="XMLID_125_" class="st6" d="M132,296.2c1.2-2.2,2.5-4.5,3.7-6.7c3.2,10.8,6.5,21.6,9.6,32.5c0.5,2,2.3,3.7,1.5,6.7
			c-6.6-9.1-12.5-17.9-13.8-28.9C132.9,298.6,132.4,297.4,132,296.2z"/>
		<path id="XMLID_124_" class="st6" d="M166.9,297.4c5.6,13.1,13.7,24.9,19.1,38.4C177.1,330.5,165.4,311.9,166.9,297.4z"/>
		<path id="XMLID_123_" class="st8" d="M186.4,358.2c2-2.1,1.9-5.1,2.7-7.6c0.4-0.9,0.7-1.8,1.1-2.7c2.2,2.4,0.2,4.9-0.2,7.2
			c-2.9,17.7-18,31.2-33.8,30.7c-1.1,0-2.2,0.2-3-0.9c12.6-2.8,23-9,30.5-19.7C185,363,186.3,360.8,186.4,358.2z"/>
		<path id="XMLID_122_" class="st6" d="M170.1,280.4c6,1.3,11.7,4.6,18.2,3.8c6-0.7,11.7-1.8,16-6.6c0.9-0.4,1.9-0.7,2.8-1.1
			c0.3,0,0.6,0,1,0.1c-6.1,10.8-16,14.6-25.6,11.3C177.8,286.2,173.2,284.6,170.1,280.4z"/>
		<path id="XMLID_121_" class="st8" d="M127.3,260.4c-4.1-2.6-8.5-4.4-13.3-5.1c-1.1-4.5-6.6-3.1-9.3-7.3c9.9,1.4,18.1,5.4,26.5,8.8
			C130.1,258.1,128.1,258.6,127.3,260.4z"/>
		<path id="XMLID_120_" class="st6" d="M257.4,332.6c-1,1.6-2.2,2.8-3.8,3.7c-4.6-7-7.8-14.4-7.7-23.2
			C249.7,319.6,253.5,326.1,257.4,332.6z"/>
		<path id="XMLID_119_" class="st8" d="M249.7,342c-0.9,5.8-4.7,9.4-9.8,10.9c-5.2,1.5-10.5,0.6-14.8-3.3c3.8-0.3,7.3,1.5,11.2,0.7
			C242,349.2,245.7,345.4,249.7,342z"/>
		<path id="XMLID_118_" class="st8" d="M240.2,263.4c-0.1-4.2,1.4-7.8,3.8-11.4c0,4.1,0,8.2,0,12.4
			C242.7,264.1,241.3,264.6,240.2,263.4z"/>
		<path id="XMLID_117_" class="st6" d="M168.2,278.6c1.3,0,1.9,0.6,1.9,1.8C168.9,280.3,168.2,279.7,168.2,278.6z"/>
		<path id="XMLID_116_" class="st8" d="M225.1,349.6c-0.8,0-1.6-0.2-2-1C223.9,348.7,224.7,348.8,225.1,349.6z"/>
		<path id="XMLID_115_" class="st6" d="M165.3,276.6c0.8,0,1.5,0.1,1.8,0.9C166.4,277.5,165.7,277.3,165.3,276.6z"/>
		<path id="XMLID_114_" class="st8" d="M249.8,341.1c0.1,0.2,0.2,0.4,0.3,0.7c0,0-0.2,0.1-0.4,0.2
			C249.7,341.7,249.8,341.4,249.8,341.1z"/>
		<path id="XMLID_113_" class="st5" d="M385.3,357.3c2.9-9.3,5.8-18.6,8-28.1c2.9-12.6,5.2-25.3,4.4-38.3c-0.1-1.4-0.1-2.8-0.3-4.2
			c-3.3-24.8,3.3-46.7,20-65.3c3.8-4.3,9.1-6.5,14.6-8.1c-5.6,5.5-11.3,10.8-15.9,17.1c-12.4,17-17.3,35.6-12.8,56.6
			c2.9,13.9,0.3,27.6-3.3,41c-2.7,10.2-7.4,19.4-12.8,28.4C386.9,357,386.5,357.5,385.3,357.3z"/>
		<path id="XMLID_112_" class="st5" d="M371.2,262.3c5.2,2.3,8,6.9,10.9,11.3c2.2,3.3,4,6.7,4.7,10.8
			C381.2,277.3,375.1,270.6,371.2,262.3L371.2,262.3z"/>
		<path id="XMLID_111_" class="st5" d="M366.6,282.4c7.5,5.5,12,13.1,14.2,22.2c-5.1-7.1-10.2-14.3-15.3-21.4
			C365.8,282.9,366.2,282.7,366.6,282.4z"/>
		<path id="XMLID_110_" class="st5" d="M400.6,341.1c3.3-8.9,11.2-11.4,19.2-13.8C413.2,331.6,407.9,337.8,400.6,341.1L400.6,341.1z
			"/>
		<path id="XMLID_109_" class="st5" d="M413.8,306.9c0.3-2.5,2.1-3.9,4.1-4.7c5.3-2.2,10.8-4.2,16.8-3.3
			C428,301.9,421.1,305,413.8,306.9L413.8,306.9z"/>
		<path id="XMLID_108_" class="st5" d="M440.5,254.6c-6.7,2.6-13.5,5.2-20.2,7.7c-0.2-0.5-0.4-0.9-0.6-1.4
			C425.1,254.8,432.8,254.6,440.5,254.6z"/>
		<path id="XMLID_107_" class="st5" d="M373.1,244.3c7.9,4.5,11.1,12.1,13.4,20.3c-4.6-6.7-9.9-12.9-13.6-20.2L373.1,244.3z"/>
		<path id="XMLID_106_" class="st5" d="M435.9,275.9c-7.6,3-14.3,5.6-21.1,8.2C415.1,279,424.6,275.2,435.9,275.9z"/>
		<path id="XMLID_105_" class="st5" d="M371.2,313.6c5.7,4.3,9.8,9.6,10,17.2C376.5,325.8,372.7,320.4,371.2,313.6L371.2,313.6z"/>
		<path id="XMLID_104_" class="st5" d="M387.3,213c6.3,2.2,11.8,9,11.9,15.1C394.2,223.6,389.9,219,387.3,213
			C387.3,213,387.3,213,387.3,213z"/>
		<path id="XMLID_103_" class="st5" d="M391.9,245.6c-3.6-6.9-7.4-12.2-11.5-17.9C387.5,229.3,391,234.7,391.9,245.6z"/>
		<path id="XMLID_102_" class="st5" d="M426.1,240.6c5.7-6.4,13.5-6.5,20.8-7.9c0.1,0.4,0.3,0.9,0.4,1.3
			C440.2,236.2,433.2,238.4,426.1,240.6z"/>
		<path id="XMLID_101_" class="st5" d="M400.6,341.1c-0.1,0.4-0.2,0.8-0.3,1.2C399.4,341.6,400.2,341.4,400.6,341.1
			C400.6,341.1,400.6,341.1,400.6,341.1z"/>
		<path id="XMLID_100_" class="st5" d="M413.9,306.9c-0.3,0.2-0.7,0.5-1,0.7c0,0-0.2-0.2-0.2-0.3C413,307.1,413.4,307,413.9,306.9
			C413.8,306.9,413.9,306.9,413.9,306.9z"/>
		<path id="XMLID_99_" class="st5" d="M373,244.4c-0.3-0.3-0.6-0.7-0.9-1l0,0c0.3,0.3,0.7,0.6,1,0.9
			C373.1,244.3,373,244.4,373,244.4z"/>
		<path id="XMLID_98_" class="st5" d="M371.2,313.6c-0.1-0.1-0.3-0.3-0.4-0.4c0.1,0,0.2,0,0.3,0.1
			C371.1,313.3,371.1,313.4,371.2,313.6C371.2,313.6,371.2,313.6,371.2,313.6z"/>
		<path id="XMLID_97_" class="st5" d="M371.2,262.4c-0.1-0.1-0.3-0.3-0.4-0.4C370.9,262.1,371,262.2,371.2,262.4L371.2,262.4z"/>
		<path id="XMLID_96_" class="st5" d="M386.4,212c-0.1-0.1-0.3-0.1-0.4-0.2C386.1,211.9,386.2,212,386.4,212L386.4,212z"/>
		<path id="XMLID_95_" class="st3" d="M357.8,379.1c-0.3-0.3-0.6-0.7-0.9-1C357.2,378.4,357.5,378.7,357.8,379.1z"/>
		<path id="XMLID_94_" class="st5" d="M386.3,212.1c0.3,0.3,0.7,0.6,1,0.9c0,0-0.1,0.1-0.1,0.1C387,212.7,386.7,212.4,386.3,212.1
			L386.3,212.1z"/>
		<path id="XMLID_93_" class="st5" d="M372.1,243.4c-0.1-0.1-0.3-0.3-0.4-0.4c0.1,0,0.2,0,0.2,0.1
			C372.1,243.1,372.1,243.3,372.1,243.4L372.1,243.4z"/>
		<path id="XMLID_92_" class="st4" d="M257.4,229.1c-2.5,1-5.1,2-7.6,3c-0.4,0.2-0.7,0.5-1.1,0.7c0,0,0-0.1,0-0.1
			c-1.7,0.4-3.4,0.6-5,1.2c-11.8,4.2-21.9,1.5-30.5-7.4c-1.2-1.2-2-2.9-3.9-3.3c0,0-0.1,0-0.1,0c-0.1-0.6-0.2-1.2-0.4-1.9
			c-0.4-5.2,0.7-10.2,2.9-14.9c5.9-9.1,14.2-13.4,25.1-12.4c3,0.3,5.9,0.6,8.1,3c-4.5,0.1-9.3-1.1-12.6,3.3c-2.8,3.7-5,8.5-11.5,5.1
			c9.3,6.4,11.4,6.4,18.6-1c3.5-3.5,7.6-4,12.1-3.8C258.8,209,261.8,218.3,257.4,229.1z"/>
		<path id="XMLID_91_" class="st5" d="M145.4,215.9c-14.2-12.9-26.2-27.2-30.8-46.4c-1.4-5.9-1.6-11.8-1-18
			c8,23.3,19.8,44.2,38.4,60.7C150.4,214.3,148,215.3,145.4,215.9z"/>
		<path id="XMLID_90_" class="st8" d="M145.4,215.9c2.5-0.6,4.9-1.6,6.6-3.7c4.1-1.8,6.5-5.4,9.7-8.2c1.4-1.3,2.8-2.5,4.6-3.3
			c0.2,4.7-4,6.8-6.5,9.4c-8.2,8.5-18.1,15.1-30,16.8c-13.8,1.9-26.9-0.4-38.4-9.1c10.5,2.3,21,5,32,4
			C131.1,220.9,138.4,219.1,145.4,215.9z"/>
		<path id="XMLID_89_" class="st3" d="M251.6,200.6c-4.5-0.2-8.6,0.3-12.1,3.8c-7.2,7.3-9.3,7.4-18.6,1c6.4,3.5,8.7-1.3,11.5-5.1
			c3.3-4.4,8.1-3.2,12.6-3.3l0-0.1c0.3,1,1.1,0.8,1.8,0.8c2.2,0.5,4.4,0.9,6.7,1.4C253.5,200.2,252.2,200,251.6,200.6z"/>
		<path id="XMLID_88_" class="st5" d="M89.2,216.2c-1.5-0.2-2.9-0.3-4.4-0.5c9.9-6.3,20.5-9.9,32.6-8
			C114,211.6,104.7,214.3,89.2,216.2z"/>
		<path id="XMLID_87_" class="st5" d="M211.8,206.4c-2.2,4.7-3.3,9.7-2.9,14.9c-0.2,0-0.5,0-0.7,0c-0.7-1.5-1.5-2.9-2.2-4.4
			c0.1-9.8,0-19.7,5.8-28.8C211.8,194.3,211.8,200.4,211.8,206.4z"/>
		<path id="XMLID_86_" class="st5" d="M152,182.5c-5.4-10.9-4-24.5,2-36.7C154.2,158.4,152.3,169.9,152,182.5z"/>
		<path id="XMLID_85_" class="st5" d="M181.5,191.1c-1.9,0.4-3.7,0.9-5.6,1.3c0.8-8.5,1.2-17,5.6-24.9
			C181.5,175.4,181.5,183.2,181.5,191.1z"/>
		<path id="XMLID_84_" class="st4" d="M246.8,197.7c-0.7,0-1.5,0.2-1.8-0.8C245.7,196.9,246.4,197,246.8,197.7z"/>
		<path id="XMLID_83_" class="st8" d="M175.3,211c0.8,17.7-2.1,35.2-1.3,53.2C166.9,254.2,167.5,226.1,175.3,211z"/>
		<path id="XMLID_82_" class="st8" d="M209.3,223.2c1.8,0.5,2.7,2.1,3.9,3.3c8.6,8.9,18.7,11.6,30.5,7.4c1.6-0.6,3.3-0.8,5-1.2
			c-7.1,9.4-21.2,10.4-28.8,3.7C215.7,232.8,210.4,229.5,209.3,223.2z"/>
		<path id="XMLID_81_" class="st8" d="M207.1,276.5c-0.9,0.4-1.9,0.7-2.8,1.1c-3.9-8.9-5.2-18.3-4.8-27.9c0.1-3.2,0.7-6.2,2.4-9.1
			C203.5,252.6,206.4,264.4,207.1,276.5z"/>
		<path id="XMLID_80_" class="st8" d="M208.1,221.4c0.2,0,0.5,0,0.7,0c0.1,0.6,0.2,1.2,0.4,1.9C208.1,223.1,208.1,222.2,208.1,221.4
			z"/>
		<path id="XMLID_79_" class="st8" d="M248.7,232.8c0.4-0.2,0.7-0.5,1.1-0.7C249.4,232.3,249,232.6,248.7,232.8z"/>
		<path id="XMLID_78_" class="st6" d="M235.6,438.2c7.4-4.9,15.2-7.1,22.7-9.6c12.1-3.9,24.4-7.3,36.8-10
			c10.7-2.3,21.7-3.5,32.1-7.3c6.8-2.5,13.5-5.1,20.3-7.6c1.1-0.4,2.5-1.8,3.3-0.2c0.7,1.3-0.9,2.2-2,2.8
			c-6.7,3.6-13.8,6.2-20.9,8.8c-16.3,6-33.7,7.4-50.3,12.3c-12.1,3.5-24.2,6.9-36.3,10.3C239.7,438.1,238.2,439.2,235.6,438.2z"/>
		<path id="XMLID_77_" class="st8" d="M169.1,400.7c2.9-4.7,8-3.9,12.2-4.5c17.4-2.1,34.9-2.3,52.3-2c1.9,0,3.8-0.3,5.5,1
			c0.1,0.3,0.1,0.6,0.1,0.8c-1.2,1.1-0.7,2.6-0.9,3.9c-14.6,0-29.2,0-43.8,0C186,397.9,177.5,397.6,169.1,400.7z"/>
		<path id="XMLID_76_" class="st6" d="M238.4,399.9c0.2-1.3-0.4-2.8,0.9-3.9c0.7,5.7,1.4,11.3,0.2,17.2c-1.9,9-10.1,18.2-18.4,19
			c-0.2-0.2-0.1-0.3,0-0.5c3-6,7.6-10.8,12.6-14.9c3.5-2.8,4.2-6.3,4.7-10.2C238.6,404.3,238.4,402.1,238.4,399.9z"/>
		<path id="XMLID_75_" class="st3" d="M221.3,460.6c-2.5-0.4-5-0.8-7.5-1.2c1.2-1.9,2.4-3.8,3.5-5.8
			C218.4,456,220.8,457.7,221.3,460.6z"/>
		<path id="XMLID_74_" class="st3" d="M238.4,399.9c0,2.2,0.2,4.4,0,6.6c-0.4,3.9-1.2,7.4-4.7,10.2c-5.1,4.1-9.7,8.9-12.6,14.9
			c-1.9-5.8-3.4-11.8-7.1-16.9c-5.4-7.5-13.8-8.6-20.9-2.4c-1.7,1.4-3.4,2.9-4.6,4.7c-5.6,8.2-12.5,6.1-18.7,3.4
			c-2.4-1-4.6-2.6-7.9-4.5c2,0,2.8-0.3,3.4,0c6,3.2,9.5,0.4,12.6-4.8c3.9-6.5,9.5-10,17.5-7.8c1.4,0.4,3,0.1,4.7,0.1
			c-1.3-2.5-4.1-2-5.6-3.6C209.2,399.9,223.8,399.9,238.4,399.9z"/>
		<path id="XMLID_73_" class="st8" d="M270.6,384.5c-10-7-14-17.7-16.2-29.4c5.7,9.5,11.4,19.1,17.2,28.6
			C271.2,384,270.9,384.2,270.6,384.5z"/>
		<path id="XMLID_72_" class="st8" d="M213.7,381.9c-5.5-2.1-7.8-7-10.2-11.8c-2.6-5.2-4.3-10.7-4.2-16.9
			C204.2,362.7,208.9,372.3,213.7,381.9L213.7,381.9z"/>
		<path id="XMLID_71_" class="st8" d="M242.2,383.7c-9-4-14.1-11.1-17.1-19.8c0.4-0.3,0.8-0.6,1.2-0.9
			C231.5,369.9,236.8,376.8,242.2,383.7z"/>
		<path id="XMLID_70_" class="st1" d="M281.1,363.8c-0.2-0.3-0.5-0.7-0.7-1C281.5,362.6,280.8,363.5,281.1,363.8
			C281.1,363.8,281.1,363.8,281.1,363.8z"/>
		<path id="XMLID_69_" class="st8" d="M213.7,381.8c0.2,0.3,0.5,0.7,0.7,1c-0.1,0.1-0.2,0.2-0.4,0.2
			C214,382.7,213.8,382.3,213.7,381.8L213.7,381.8z"/>
	</g>
	<g id="XMLID_243_">
		<path id="XMLID_250_" class="st9" d="M249.2,374.3c-7.5-0.7-13.6,0.6-19.5,3.3c-14.7,6.8-29.1,6.2-43.1-1.9
			c-7.2-4.1-15.1-5.8-23.3-7c-13.9-2-24.4-9.6-31.8-21.5c-3.7-6-8.5-11-14.5-14.7c-13.8-8.5-21.2-20.8-22.6-36.9
			c-0.6-6.8-2.9-13-6.5-19c-7.8-13.1-8.5-26.9-2.5-40.7c3-7,4.3-14.2,4.2-21.6c-0.3-15.6,5.9-28.2,17.9-38
			c5.3-4.4,9.3-9.7,12.2-15.9c6.5-13.9,17.6-22.1,32.2-25.9c7.9-2.1,15.2-5.2,21.9-10c11.6-8.3,24.6-9.9,38.1-6.3
			c8.4,2.3,16.5,2.7,25.1,1.3c13.1-2.2,24.5,1.6,34,10.8c6.1,6,13,10.2,21.2,12.8c13.5,4.3,22.7,13.5,27.5,26.9
			c2.9,8.2,7,15.4,12.9,21.9c10,11.1,13.8,24.2,11,39.1c-1.2,6.2-0.4,12.3,1.5,18.3c4.9,15.3,2.7,29.4-6.9,42.4
			c-4.3,5.9-7.2,12.3-8.6,19.6c-2.7,14.2-10.8,24.8-23.7,31.4c-7.8,4-14.5,9-20.2,15.9C276,370.3,263.1,374.9,249.2,374.3z
			 M272.1,159.6c-2.8-0.6-4.6,1.4-6.4,3.2c-45,45-89.9,89.9-134.9,134.9c-0.5,0.5-1,0.9-1.4,1.4c-1.5,1.9-2.5,4.1-2.2,6.5
			c0.4,3.1,2.1,5.3,5.1,6.2c3.1,0.9,5.5-0.6,7.6-2.8c45.3-45.3,90.6-90.6,135.9-135.9c0.9-0.9,1.6-1.8,2.3-2.9
			c1.5-2.3,2.1-4.9,0.8-7.3C277.7,160.6,275.2,159.3,272.1,159.6z M303.4,190.6c0-3.9-1.1-5.4-4.7-6.6c-3-1-5.3,0-7.4,2.2
			c-45.5,45.6-91.1,91.1-136.7,136.7c-0.5,0.5-1.1,1-1.6,1.6c-2.5,3.3-2.1,7,1.1,9.9c2.7,2.4,5.7,2.1,8.8-0.9
			c6.5-6.3,12.9-12.6,19.4-18.9c31.7-31.1,62.6-63.1,94.6-93.9c8.1-7.8,15.9-15.9,23.9-23.8C302.5,195.1,303.7,193.1,303.4,190.6z
			 M302.2,225.8c-2.1-0.4-3.8,0.7-5.5,2.4c-18.4,18.2-36.4,36.7-55.1,54.7c-15.8,15.2-31,30.9-46.5,46.4c-3.2,3.2-3.4,8-0.6,10.7
			c2.8,2.6,7.4,2.4,10.5-0.7c12-11.8,23.7-23.9,35.9-35.5c8.5-7.9,16.5-16.4,24.7-24.6c13.8-13.8,27.6-27.6,41.4-41.4
			c2.4-2.4,3.5-5.3,2.2-8.3C308.2,227,305.6,225.7,302.2,225.8z M238.3,160.4c0-1-0.1-1.9-0.5-2.8c-2.1-5-8.2-5.6-12.5-1.3
			c-33.5,33.5-67,67-100.5,100.6c-1,1-2,2.1-2.6,3.3c-2.2,3.9-0.6,8.3,3.5,9.8c3.1,1.2,5.5-0.2,7.7-2.3c15-14.6,29.5-29.6,44.6-44.2
			c19.5-18.9,38.4-38.3,57.6-57.4C237.2,164.5,238.3,162.7,238.3,160.4z M198.9,150.7c0.3-2.4-0.8-4.1-3.2-5.3c-4-2-6.4-1.7-9.7,1.6
			c-23.7,23.7-47.4,47.3-71,71c-0.4,0.4-0.8,0.8-1.2,1.2c-2.4,3-2.3,7.6,0.2,9.9c2.6,2.4,7.3,2.5,9.9-0.1
			c24.2-24.2,48.4-48.4,72.6-72.6C198.1,155,199.1,153.1,198.9,150.7z M238.5,350.9c2.8,0.1,4.6-1.1,6.3-2.7
			c23.8-23.8,47.6-47.6,71.4-71.4c0.3-0.3,0.7-0.7,1-1c3.1-4,2-8.7-2.5-10.9c-3.2-1.5-5.7-0.9-8.7,2c-23.7,23.7-47.5,47.5-71.2,71.2
			c-0.3,0.3-0.7,0.6-1,1c-1.8,2.6-2.5,5.4-1.1,8.3C233.9,349.9,236.1,350.9,238.5,350.9z"/>
		<path id="XMLID_61_" class="st10" d="M272.1,159.6c3.1-0.3,5.6,1,6.9,3.4c1.2,2.3,0.7,5-0.8,7.3c-0.7,1-1.5,2-2.3,2.9
			c-45.3,45.3-90.6,90.6-135.9,135.9c-2.1,2.1-4.5,3.7-7.6,2.8c-3-0.9-4.7-3.1-5.1-6.2c-0.3-2.4,0.7-4.6,2.2-6.5
			c0.4-0.5,0.9-1,1.4-1.4c45-45,89.9-89.9,134.9-134.9C267.5,161,269.3,159,272.1,159.6z"/>
		<path id="XMLID_60_" class="st10" d="M303.4,190.6c0.2,2.5-0.9,4.5-2.7,6.2c-8,7.9-15.8,16-23.9,23.8
			c-32,30.8-62.8,62.8-94.6,93.9c-6.4,6.3-12.9,12.7-19.4,18.9c-3.1,3-6.1,3.3-8.8,0.9c-3.2-2.8-3.6-6.6-1.1-9.9
			c0.5-0.6,1-1.1,1.6-1.6c45.6-45.6,91.1-91.1,136.7-136.7c2.1-2.1,4.4-3.2,7.4-2.2C302.3,185.2,303.4,186.7,303.4,190.6z"/>
		<path id="XMLID_59_" class="st10" d="M302.2,225.8c3.4-0.1,6,1.1,7.2,3.8c1.3,3,0.2,5.9-2.2,8.3c-13.8,13.8-27.6,27.6-41.4,41.4
			c-8.2,8.2-16.2,16.6-24.7,24.6c-12.3,11.5-23.9,23.7-35.9,35.5c-3.1,3.1-7.7,3.3-10.5,0.7c-2.8-2.7-2.6-7.5,0.6-10.7
			c15.5-15.5,30.7-31.2,46.5-46.4c18.7-17.9,36.6-36.5,55.1-54.7C298.4,226.6,300.1,225.5,302.2,225.8z"/>
		<path id="XMLID_58_" class="st10" d="M238.3,160.4c0,2.3-1.2,4.1-2.8,5.7c-19.2,19.2-38.1,38.6-57.6,57.4
			c-15,14.6-29.6,29.5-44.6,44.2c-2.2,2.1-4.6,3.5-7.7,2.3c-4.1-1.5-5.7-5.9-3.5-9.8c0.7-1.2,1.6-2.3,2.6-3.3
			c33.5-33.5,67-67,100.5-100.6c4.4-4.4,10.4-3.7,12.5,1.3C238.3,158.5,238.3,159.4,238.3,160.4z"/>
		<path id="XMLID_57_" class="st10" d="M198.9,150.7c0.1,2.4-0.8,4.2-2.3,5.8c-24.2,24.2-48.4,48.4-72.6,72.6
			c-2.6,2.6-7.3,2.5-9.9,0.1c-2.5-2.4-2.6-6.9-0.2-9.9c0.4-0.4,0.8-0.8,1.2-1.2c23.7-23.7,47.3-47.4,71-71c3.3-3.3,5.7-3.6,9.7-1.6
			C198.1,146.6,199.2,148.3,198.9,150.7z"/>
		<path id="XMLID_56_" class="st10" d="M238.5,350.9c-2.4,0-4.6-1-5.7-3.5c-1.4-2.9-0.7-5.7,1.1-8.3c0.3-0.4,0.7-0.7,1-1
			c23.7-23.7,47.5-47.5,71.2-71.2c3-3,5.5-3.5,8.7-2c4.5,2.1,5.6,6.9,2.5,10.9c-0.3,0.4-0.7,0.7-1,1c-23.8,23.8-47.6,47.6-71.4,71.4
			C243.1,349.9,241.2,351,238.5,350.9z"/>
	</g>
	<g id="XMLID_187_">
		<path id="XMLID_15_" class="st11" d="M234.6,443.9c-12.5-3.7-25.4-5.4-38.4-5.2c-0.5,0-1.3,0-1.5,0.3c-4.6,5.7-8.7,1.4-12.4-1
			c-6-4-13.2-5.7-19.1-9.3c-11.1-6.7-23.2-12.1-31.9-22.8c-4.1-5-10.5-8.1-14.6-13.6c-9.6-12.9-17.9-26.2-23.4-41.7
			c-4.3-12.2-6.3-24.8-10.6-36.9c-1.5-4.3-1.6-9-1.2-13.7c0.7-7.3,0.7-14.6,0.6-22c-0.1-14.1,2.4-27.7,6.6-41
			c1.4-4.6,3.9-9,4.7-13.9c0.3-2.3,0.9-4.5,0.2-6.8c-2.2,0.5-2.8,2.4-3.5,3.9c-4.1,9.2-9.3,17.9-11.5,27.9c-0.2,1-0.6,2.1-0.5,3.1
			c0.1,1.5,2.1,3.9-1.2,3.8c-2.2-0.1-4.4-1.2-3.7-4.6c1.2-6.4,3.2-12.4,5.7-18.3c5.3-12.3,12.3-23.7,19.8-34.7
			c9.5-13.8,19.1-27.5,28.8-41.1c6.3-8.8,14.5-16.4,24.1-22.3c4.6-2.8,8.2-7.2,14.5-6.9c2,0.1,4.3-1.7,6.1-3.1
			c7.2-5.5,15.2-9.7,21.7-16.3c2.5-2.5,6.5-4.2,10-4.6c12.4-1.5,23.6-6.7,35.3-10.5c4.6-1.5,9.1-3.3,13.9-3.6
			c1.7-0.1,3.8-0.5,4.6,1.7c0.7,1.8-0.5,3.1-1.7,4.1c-3.1,2.6-1.8,3.7,1.3,5c9.1,3.7,18.6,5.9,28.1,8.4c11,2.9,22.5,4.5,32,11.6
			c3,2.2,6.2,4,10.4,3.4c3.8-0.5,6.1,2.8,8.6,4.9c5.3,4.4,10.6,8.8,17,11.7c6.3,2.8,8.8,9.5,13.2,14.3
			c15.8,17.3,26.7,38.2,39.9,57.4c2.7,4,5.3,7.9,7.4,12.4c2.2,4.8,2.5,9.8,3.5,14.8c1.9,8.9,1.8,17.9,3.3,26.7
			c1.9,10.8,3.8,21.7,5.1,32.6c1,8.5-0.2,17,0.9,25.5c0.2,1.7-0.8,3.1-1.4,4.5c-2.3,5.2-5.1,10.3-6,16c-0.3,1.9-1.7,2.5-2.8,3.6
			c-4.3,4.7-8.6,9.4-8.6,16.4c0,0.8-0.1,1.8-0.9,1.3c-4.2-2.3-5.1,1.7-6.7,3.7c-8.3,10.5-18.3,19.1-28,28.2
			c-6.4,6-14.2,10.6-19.3,18c-1,1.4-2.6,1.8-4.2,2.2c-6.3,1.8-12.3,4.3-17.6,8.1c-5.9,4.2-12.6,6.7-18.9,9.8c-1.4,0.7-2.7,1.1-2.3,3
			c0.4,2,1.9,1.8,3.3,1.7c5.5-0.2,11.1-0.2,16.6-0.6c3.6-0.3,6.5,0.9,10.6,2.2c-2.9,1.9-5,2.1-7.4,2c-11-0.5-22-0.7-32.9,0.8
			c-6.7,0.9-12.9,4.7-20,4.7c-3.8,0-7.6,1.1-11.3-1.3c-1.2-0.8-3.1-0.6-4.7-0.5c-12.4,0.2-24.8-0.2-37.2,1.4
			c-1.1,0.1-2.7,1.3-2.9-0.9c-0.2-1.8,1.2-2.2,2.9-2.4c2.5-0.3,5.3,1.2,7.5-1.2c0.1,0.5,0.3,0.9,0.4,1.4c0.2-0.2,0.6-0.4,0.6-0.5
			C235.2,444.6,234.9,444.2,234.6,443.9z M309.6,410.7c-0.1,0.1-0.3,0.1-0.4,0.2c-0.1,0.1,0,0.2,0,0.3
			C309.4,411.1,309.5,410.9,309.6,410.7c0.4-0.1,1.1,0.1,0.5-0.7C310,410.3,309.8,410.5,309.6,410.7z M312.9,408.6
			c0.4-0.4,0.7-0.7,1.1-1.1c0.4-0.3,0.9-0.6,1.3-0.8c3.7-1.7,7.3-3.4,11-5.1c1.8-0.9,1.4-2.2,0.5-3.5c-0.6-1-1.9-1.9-2.5-0.8
			c-2.4,3.9-7.2,5-9.4,9c-0.3,0.4-0.6,0.8-1,1.2c-0.4,0.4-0.7,0.7-1.1,1.1c-0.3,0.2-1.1,0.1-0.4,0.8
			C312.5,409.1,312.7,408.9,312.9,408.6z M301,383.9c0.9-0.1,1.7-0.3,1.8-1.3c0-0.1-0.2-0.3-0.4-0.3C301.4,382.3,301,383,301,383.9
			c-0.3,0.4-0.7,0.8-1,1.1c-1.2,0.1-2.1,0.6-2,1.9c0,0.6,0.3,1.1,1,0.8c1.3-0.6,0.8-1.8,1-2.8C300.3,384.6,300.6,384.2,301,383.9z
			 M291.4,383.9c-1.6,0.2-2.7,0.8-1.8,3C290.2,385.9,290.8,384.9,291.4,383.9c0.3-0.4,0.7-0.7,1.1-1.1c4.9-1.8,7.2-7.1,12.1-9.1
			c0.4-0.2,0.8-1.3,0.7-1.7c-0.4-1.1-1.5-1-2.1-0.4c-3.9,3.4-9,5.6-10.6,11.2C292.1,383.2,291.7,383.6,291.4,383.9z M117.5,382.8
			c0.1,0.1,0.1,0.3,0.2,0.4c0,0.1,0.2,0,0.3,0.1C117.8,383.1,117.6,383,117.5,382.8c-1-4.8-4.1-8.7-6.2-13
			c-7.4-15.5-13.6-31.4-16.7-48.3c-1.2-6.7-2.5-13.3-7.3-18.7c-1.3,1.9-0.9,3.8-0.4,5.6c5.2,16.4,7.4,33.6,15,49.3
			C106.2,366.7,109.2,376.4,117.5,382.8z M273.6,173.9c-0.2-0.2-0.5-0.4-0.7-0.6c0.1-0.7,0-1.7,0.4-2c7.1-5.8,12.3-13.6,19.3-19.5
			c7-5.9,12.2-13.6,19.6-19.1c2-1.5,3.2-3.9-0.6-5.1c-4.9-1.6-9.8-3.3-14.9-4.3c-5.1-1.1-10.3,0-15.1,2c-1.1,0.5-1.2,2.6-2.8,2.1
			c-2.4-0.8-0.4-2.2-0.1-3.3c0.2-0.8-0.5-0.8-0.9-1c-3.3-2.2-11.7-2-15.3,0.3c-7.1,4.6-12.6,10.7-17.7,17.4c-1.6,2.1-4,3.4-3.9,6.7
			c0.2,5.2,0.2,10.4-0.1,15.5c-0.2,3.2,1.7,2.2,3.3,2.2l-0.1-0.1c0.4,3.5-3.2,5.4-3.2,8.8c0.1,9,0,18-0.1,27c0,2.4,0.7,3.5,3.1,1.6
			c1.9-1.5,4-2.7,6.3-4.2c0.3,2.7-1.4,3.7-2.4,4.6c-5.6,4.6-7.4,10.5-7,17.5c0.3,6-0.1,12.1,0.1,18.2c0.1,3.6-1.8,8.6,1.5,10.5
			c2.8,1.6,5.1-3.5,8.2-4.7c0.2,2.2-0.7,3.8-2.5,4.9c-6.3,4-6.6,10.5-6.9,16.8c-0.2,3.7,3.1,5.8,5.7,7c5.8,2.8,15.6-1,20-6.3
			c5.4-6.6,10.7-13.3,16.9-19.2c7.9-7.5,15.7-15,23.4-22.7c1.4-1.4,2.7-2.2,4.7-2l-0.1-0.1c0.2,2.5-1.7,3.9-3.1,5.4
			c-4.1,4.4-8.5,8.6-13,12.5c-11.1,9.7-19.7,21.6-30.6,31.4c-1.5,1.3-2.4,3.5-1.5,5.3c0.9,1.8,2.5,3.3,5,3.5
			c5.1,0.5,10.2,1.4,15.4,1.9c2.2,0.2,4.8,1.1,6.6-0.9c5.9-6.7,12.7-12.6,18.5-19.5c8.7-10.3,18-20.1,28.1-29.1
			c7.2-6.4,13.5-13.6,19.8-20.7c4.6-5.1,9.9-9.5,13.6-15.4c0.9-1.4,2.1-0.9,3.3-0.2c1.5,0.8,1.5,1.8,0.6,3.1
			c-0.4,0.6-0.8,1.2-1.4,1.6c-8.9,7.8-15.4,17.9-24.9,25.2c-5.5,4.2-10.5,9.5-15.2,14.6c-6.9,7.4-14.2,14.5-20.8,22.1
			c-4.9,5.6-10.1,11-15.2,16.5c-1.5,1.7-2.7,3.3,0.8,4c8.4,1.5,16.8,3.5,25.4,3.3c1.5,0,2.6-0.4,3.7-1.6
			c10.4-11.1,20.4-22.5,30-34.2c8.1-10,16.1-20.1,25.5-28.9c2.7-2.6,3.6-5.1,2.7-8.4c-0.6-2.2-1.3-4.4-2.2-6.6
			c-3.1-8-7.6-15.5-8.5-24.3c-0.3-3.1-2-6.1-4.2-8.6c-0.9-1.1-2-2.8-3.4-2.3c-4.9,1.6-3.8-1.9-3.8-4.3c0-1.1,0.2-2.2-0.7-3
			c-4.1-3.5-7.2-7.9-11.3-11.4c-4-3.4-7.4-4.9-11.6-0.7c0-1-2.5-1.2-1.3-2.4c4.9-4.8,0.5-6.7-2.7-8.7c-2.2-1.3-3.9-3-5.7-4.7
			c-8.1-7.7-13.9-7.5-21,1.1c-9.7,11.8-21.3,21.7-31.3,33.2C276.6,172.9,275.3,173.8,273.6,173.9z M234,122.4
			c-1.4-0.1-2.5-0.1-3.5-0.3c-5.8-0.9-11.4,2.8-17.3,0.9c-6.9-2.3-12.8-0.4-18.5,3.9c-3.5,2.7-7.4,5.7-11.6,6.6
			c-7.6,1.5-13.4,5.1-18.2,10.8c-6.2,7.3-11.9,15.2-18.9,21.8c-10.1,9.5-19.2,20.2-27.5,30.8c-8.5,10.8-15.4,24.3-17.3,38.6
			c-2.3,16.7-1.1,33.6,1.1,50.3c0.1,1.1,0.6,2.4-0.2,3.1c-4,3.2-2.6,8.1-2.2,11.5c1.1,9.5,2.6,18.9,5.6,28.2
			c1.7,5.1,4.2,10,5.1,15.4c2.1,14,7.2,25.8,20,33.9c4.9,3.1,10.6,6.8,13.6,12.4c1.9,3.5,4.5,5.7,7.8,7.8c4,2.5,7.9,5.3,11.6,8.4
			c1.9,1.6,1.6,5.5,6,4.6c1.9-0.4,1.9,2.3,0.7,3c-6.4,3.8-1.3,3.6,1.4,4.5c2.6,0.9,5.1,2.8,7.8,0.1c1.1-1.1,2.3,0.2,3.3,0.9
			c11.7,9,25.6,11.7,39.6,12.4c17.1,0.9,34.3,0.5,51.3-3.9c11.1-2.8,11.3-2.2,7.2-12.7c-11.4-29.8-20.7-60.5-33.2-89.9
			c-0.7-1.6-0.9-4-2.6-4.5c-4-1.2-4.2-3.3-3.1-6.9c0.7-2.3,1.5-5.6-3.1-5.5c-2.3,0.1-2.1-2.2-2.3-3.6c-1.2-9.5-2.5-18.9-2.6-28.6
			c-0.1-17.3-1.1-34.6-1.7-51.9c-0.2-4.9-1.4-9.8-0.4-14.7c0.7-3.4,0.3-6.7,0.1-10.1c-0.7-11.9-3.1-23.8-0.7-35.8
			c0.5-2.5,1.2-5.8-0.7-7.7c-1.8-1.8-1.2-2.7-0.5-4.4c1.7-4,4.3-9.5,3.5-12.3C231.6,133.5,231.3,128.3,234,122.4z M328.4,288.9
			c4.9,0.5,8.7,0.7,12.5,1.2c12.9,1.5,25.8,3.2,38.7,4.7c4.9,0.6,8.6-1.8,10.9-5.8c3.5-6,8.7-10.4,13.3-15.3c4.7-5,5.9-7.3,3.5-13.6
			c-1.2-3-2.9-5.8-4.1-8.7c-1.2-3-2.7-2.7-4.7-0.9c-4.6,4.2-8.8,8.9-13,13.4c-7.3,8-13.8,16.8-22.8,23.2c-1.1,0.8-1.2,3.6-3.1,1.8
			c-1.3-1.2,0.4-3.2,1.5-4c8.4-6.9,12.5-17.4,21.4-24c4.8-3.5,8-9.3,13-13c1.9-1.4,3.9-3.6,2.9-5.8c-2.5-5.5-5.6-10.7-8.7-15.9
			c-0.6-1-1.7-2.7-3.3-1c-7.3,7.6-14.4,15.5-21.6,23.3c-5.2,5.6-8.6,12.6-14.1,17.9C343.4,273.5,337.1,281.6,328.4,288.9z
			 M328,295.9c-1.3,0-4-1.2-4.2,3.9c-0.1,2.9-4.4,5.8-6.9,8.5c-7.7,8.4-15.6,16.7-22.5,25.9c-2.1,2.9-3.6,6.3-0.8,9.3
			c3.3,3.6,6.3,7.2,9,11.2c1.1,1.7,2.3,2.9,4.5,0.4c14.7-17.2,29.7-34.2,44.5-51.4c1.1-1.2,3.3-2.7,1.3-4.4
			c-1.8-1.5-4.8-2.2-6.3,0.1c-6.3,9.6-15.8,16.4-22.7,25.6c-4.6,6.1-9.7,11.9-14.7,17.7c-1.3,1.4-3.1,3.7-5.4,1.5
			c-1.8-1.8-0.3-3.5,0.8-5.2c5.9-8.3,13.7-14.9,19.5-23.4c2.8-4.2,6.7-7.8,10.2-11.6c1.8-1.9,5.8-3.3,4.8-5.7
			c-1.1-2.6-5.1-2.2-8.1-2.4C330.5,295.8,329.9,295.9,328,295.9z M396.2,303.5c-1.8,0.2-3.6-0.8-4.9,1.3
			c-7.5,12.5-17.5,23.1-26.1,34.7c-1.2,1.6-2.8,2.8-4.2,4.1c-9.2,8.6-17.4,18.2-25.7,27.6c-3.1,3.5-6.3,7.1-8.5,11.4
			c-1.5,3-0.4,4.3,2,6.1c2.7,2,3.6,0.6,5-1.3c4.7-6.7,10.5-12.5,15.3-19.2c4.7-6.6,10-13.1,15.6-18.9c5.9-6.1,10.1-13.5,15.9-19.7
			c6-6.5,11.8-13.7,17.6-20.6c1.1-1.3,3.4-1.9,2.6-4.2C399.9,302.3,397.6,304,396.2,303.5z M341.7,402.3c1.5,1.3,2.5,0.8,3.5,0.4
			c7.6-3.4,14.3-7.8,19.3-14.7c3.4-4.7,6.6-9.7,11.1-13.6c7.7-6.7,13.4-15.1,19.6-23.1c4.5-5.8,7.6-12.6,7.8-20.1
			c-0.4-0.3-0.9-0.5-1.3-0.8C381.7,354.3,361.7,378.3,341.7,402.3z M384.6,304.3c0.1-2-1.1-2-2.2-2.1c-4.3-0.5-6.6,2.4-8.6,5.4
			c-5,7.4-11.1,13.9-16.8,20.6c-8.6,9.9-16.8,20.3-26.7,29.2c-4,3.5-7.2,7.9-10.6,12c-2.2,2.6-1.5,4.8,1,6.9c3,2.5,3.5-0.7,4.7-2.1
			c11.5-12.9,23.1-25.8,34.5-38.8c7.7-8.9,15-18.2,22.5-27.3C383.3,306.8,384,305.4,384.6,304.3z M369.4,303.7
			c0.3-1.8-0.3-2.4-1-2.3c-2.5,0.4-5.1-2.6-7.5,0.2c-1.7,2-3.5,4-5.1,6.2c-8.7,11.7-19,22.1-28.6,33c-5.5,6.3-10.7,13-16.5,19.1
			c-2.3,2.4-0.9,4.6,1.1,6.5c2.6,2.4,3.3-0.6,4.5-1.7c2.2-2.1,3.9-4.6,6-6.8c9.3-9.5,17.8-19.8,26.7-29.7c5.2-5.9,9.4-12.7,15.4-18
			C366.5,308.1,368.1,305.5,369.4,303.7z M336.3,398.9c1.4-0.2,2.4-1.3,3.3-2.4c7.4-10.1,15.9-19.2,23.8-28.8
			c10.7-13,21.5-26,32.4-38.8c3.2-3.7,8.5-5.5,9.8-11c0.5-2.3,1.4-4.4,3.6-5.7c1.9-1.2,2-2.9,0.5-4.5c-1.7-1.9-3-0.5-4.5,0.6
			c-2.8,2-3,5.6-5.4,7.8c-10.8,10-18.8,22.4-28.1,33.7c-11.3,13.7-21.4,28.3-33.2,41.5c-1.4,1.6-2.3,3.6-3.4,5.4
			C334.3,397.7,334.7,398.6,336.3,398.9z M304.1,299.1c-0.5,1.6-1.8,2.9-3.3,3.9c-7.1,4.8-11.1,12.3-16.4,18.7
			c-3.6,4.3-3,7.3,1.2,11.2c2,1.8,3,1.6,4.4-0.7c3.5-5.3,7.2-10.4,11.1-15.5c5.2-6.9,11.9-12.3,17.6-18.6c0.8-0.9,2-1.7,1.3-3.2
			c-0.6-1.1-1.9-0.7-2.8-1c-4.6-1.5-9,2.3-13.7,0.5c-0.5-0.2-1.7,1.3-0.7,2.5C303.4,297.4,304.3,297.8,304.1,299.1z M277.1,320.3
			c1.2,0,1.8-1,2.5-1.8c6.4-7.5,10.9-16.6,19.3-22.5c1.3-0.9,2.1-3.3,0.1-4c-4.1-1.3-9.5-1.3-12.2,0.9c-5.8,4.6-10.3,10.8-14.2,17.2
			C270.9,313.2,274.2,320.3,277.1,320.3z M411.6,285c0-0.9,0.1-1.8,0-2.7c-0.2-2.1,0.2-4.8-2.2-5.5c-1.8-0.5-3.8,1.4-4.6,3.1
			c-1.7,3.8-6,5-8,8.5c-1.4,2.4-6.2,3.5-4.9,6.2c1.4,2.9,5.8,1.1,8.8,1.2C411.4,296.2,411.4,296.1,411.6,285z M279.6,291
			c-4.4-0.8-8-1.6-12.4-1c-5.2,0.8-6.8,4.8-7.3,7.9c-0.5,3.2,3.1,6.1,6.1,8.2c1.1,0.8,2,0.3,2.7-0.7
			C272.3,300.7,275.8,296.1,279.6,291z M156.7,411.1c-9.5-3.6-12.6-13.2-19.2-19.5c-0.6-0.6-1.2-1.3-1.9-1.8c-1.4-1-3-3-4.5-1.7
			c-1.7,1.4,0,3.2,1,4.7c4.5,6.7,10.8,11.6,16.8,16.7C151.2,411.4,153.4,412.1,156.7,411.1z M297.5,406.7c3.1,1.3,5.8-0.5,6.6-1.7
			c4-5.4,9.8-7.8,15.5-10.4c1.1-0.5,2.9-0.5,2.5-2.2c-0.6-2-1.8-4.1-3.7-5c-2.2-1.1-2,1.3-2.5,2.4c-1.1,2.4-3.1,4.2-5.4,4.9
			C304.1,396.6,302.2,402.7,297.5,406.7z M308.9,429.5c-2.2-1-3.8-0.2-5.5,0.3c-8.7,2.5-17.4,5.1-26.5,6.3
			c-5.5,0.7-10.9,1.7-16.4,2.6c-1.2,0.2-2.7,0.9-2,2.4c0.5,1.2,1.8,0.6,2.6-0.3c1.4-1.6,3.3-1,5-1.1
			C280.9,438.7,294.9,434.8,308.9,429.5z M250.3,121c-5.3,0-7.9,3.6-7.2,9.8c0.1,1,0,2.2,1.1,2.8c1.3,0.7,2.6,0,3.3-1
			c1.8-2.2,3.5-4.5,5.1-6.9c0.8-1.3,3.2-2,2.4-3.7C254.2,120.3,251.9,121.2,250.3,121z M285.5,378.1c4.8-3,9.5-5.8,13.4-9.8
			c1.7-1.7,1.2-3.1-0.3-4.6c-1.2-1.2-2.4-1.6-3.6-0.1C291.2,368,287.2,372.3,285.5,378.1z M279.3,368.4c5.4-2.5,8.7-5.7,12-8.9
			c2-1.9,1-3.9-0.5-5.6c-0.8-0.9-1.9-1.3-2.6,0.1C285.7,358.5,281.2,361.9,279.3,368.4z M396.1,216.1c-1.3,2.7,3.8,15.3,8.5,21
			C403.9,230.6,400.2,221.4,396.1,216.1z M255.4,318.2c2.4-2.1,6.8-2.3,5-6.9c-1.2-3.1-4-5-6.4-7.1c-0.7-0.6-1.6-1-2.2,0
			c-0.4,0.7-1.3,1.6-0.4,2.4c1.1,1,1.1,3.2,3.2,3.2c3.1,0,2.5,1.7,1.7,3.6C255.8,314.7,254.6,315.8,255.4,318.2z M273.4,348.3
			c1.2-2.5,3.5-4.5,6.5-5.8c1.4-0.6,1.9-1.6,0.8-2.9c-0.9-1.1-1.8-2.2-3.5-1c-2.7,2-4.4,4.8-6,7.7
			C270.6,347.5,271.1,348.4,273.4,348.3z M246,111.1c4.7,2.1,9.5,4.6,14.7,1.9C256,111.4,251.1,110.3,246,111.1z M277.3,353.4
			c3.8,0.4,5.7-1.9,7.9-3.7c0.9-0.8,1.8-1.2,1-2.4c-0.9-1.3-2.1-1.4-3.2-0.4C281.1,348.7,278.7,350.1,277.3,353.4z M256.6,292.6
			c1.1-1.7,2.7-3.2,3-4.9c0.4-1.9-1.9-1.7-3.1-1.9c-2.3-0.3-3.2,1.4-3.2,3.3C253.4,290.9,255.5,291.1,256.6,292.6z M266.8,331.6
			c-1.2,0.6-2.4,1.4-3.6,1.8c-5.1,1.9-1.6,4.7,0.2,4.7C266.2,338.1,266.3,334.5,266.8,331.6z M282.3,395.9c0.3,3,1.3,5.6,2.7,8.1
			C289.8,399.4,287.1,397.4,282.3,395.9z M304.3,390.3c5,0,6.4-3.4,9.3-4.1c0.9-0.2,3.1,0.3,1.9-1.9c-0.7-1.2-1.8-1.5-3.1-0.4
			C310.1,385.7,307.8,387.5,304.3,390.3z M273.7,366.5c2.3-1.9,4.1-3.8,4.1-6.9C275.4,361.1,269.8,360.4,273.7,366.5z M281,373.4
			c-2.4,0.7-4.8,1.4-4.3,4.6c0.1,0.5,0.9,1.4,1.3,1.4C281,378.7,280.7,376,281,373.4z M222.1,106.7c-2.7,0.5-6-0.8-8.2,3.3
			C217.5,109.9,219.8,108.3,222.1,106.7z M219.9,118.6c4.2-0.4,8.3-0.8,12.5-1.2C228.2,116.5,223.9,115.9,219.9,118.6z M296,414.4
			c-1.8,1-4.6,0-5.6,2.7c-0.2,0.4,0.5,1.2,0.7,1.7C293.1,418,295.3,417.3,296,414.4z M304.3,381.3c3.6-1,3.6-1,4.6-3.7
			C307,378.5,305.4,379.3,304.3,381.3z"/>
		<path id="XMLID_14_" class="st11" d="M169.5,457.2c1.4,2.3,4.1,1.1,6.3,2.7c-4.6,0.1-8.6,0.7-12.5-0.6c-1.1-0.4-2.7-0.3-2.8-2
			c0-1.4,1.2-2.1,2.3-2.7c1.6-1,3.4-0.9,5.2-1c6.2-0.1,12.2-2.2,17.8-4.5c2.6-1.1,2.9,2.3,5.5,1.1c1.9-0.9,4.7,0.1,7-1.7
			c1.3-1,3,0.3,2.9,2.5c-0.2,3.5-1.2,0.1-1.5,0.2c-8.8,5.6-19.2,1.8-28.4,5C170.6,456.5,170.1,456.9,169.5,457.2z"/>
		<path id="XMLID_13_" class="st11" d="M204,449.2c6-3.3,11.7-1,16.8-2.4c0.3-0.1,1,0.9,1.3,1.4c0.1,0.2-0.6,1.1-0.8,1.1
			C216,448.7,210.7,452,204,449.2z"/>
		<path id="XMLID_12_" class="st11" d="M295.6,196.1c1.8-4.3,5-7.6,8.2-10.5c8.8-8,16.4-17.3,25-25.5c3.2-3,5.7-6.9,10.8-7
			c-3,5.1-8.4,7.8-11.8,12.5c-3.1,4.3-7.5,7.4-11,11.4c-5.6,6.4-11.8,12.3-17.7,18.4C298.1,196.3,296.9,196.4,295.6,196.1z"/>
		<path id="XMLID_11_" class="st11" d="M250.6,244.4c0.7-4.7,5.2-6.5,7.8-9.7c6.7-8.1,14.1-15.6,21.3-23.3c0.4-0.4,1.4-0.2,2.1-0.3
			c0.2,1.9-0.4,3.6-1.7,4.9c-8.8,9.2-17.7,18.4-26.5,27.6C252.7,244.5,251.6,244.4,250.6,244.4z"/>
		<path id="XMLID_10_" class="st11" d="M311.8,222.9c-0.8-3.6,2.2-5.4,4.2-6.9c5.4-4.1,8.5-10.2,13.7-14.4c3.9-3.1,6.5-8.1,12-8.9
			c0.2,0.2,0.3,0.3,0.5,0.5c-2.2,2.8-4,6-6.6,8.2c-7.9,6.4-14.5,14-21.8,20.9C313.2,222.7,312.4,222.7,311.8,222.9
			C311.7,222.9,311.8,222.9,311.8,222.9z"/>
		<path id="XMLID_9_" class="st11" d="M341.7,192.7c0.9-5.5,5.8-7.9,9.1-11.3c2.6-2.8,5-6.6,11.4-6.7c-6.9,7.2-13.2,13.2-20,18.6
			C342,193.1,341.8,192.9,341.7,192.7z"/>
		<path id="XMLID_8_" class="st11" d="M281.7,211.1c1.3-4.4,3.9-7.7,8.6-8.6C288.1,206,286.8,210.5,281.7,211.1z"/>
		<path id="XMLID_7_" class="st11" d="M290.3,202.5c1-2.8,1.3-6.3,5.4-6.5C294.9,199.1,294.2,202.1,290.3,202.5z"/>
		<path id="XMLID_6_" class="st11" d="M273.6,173.9c-4.7,7.1-9.2,14.4-17.5,18l-0.3-0.3c5-6.7,10.2-13.3,17.1-18.2
			C273.1,173.5,273.3,173.7,273.6,173.9z"/>
		<path id="XMLID_5_" class="st11" d="M267.8,139.3c-2.1,5.7-5.6,9.9-11.8,11.7c4.8-3.1,5.4-10.1,11.5-11.9
			C267.6,139,267.8,139.3,267.8,139.3z"/>
		<path id="XMLID_4_" class="st11" d="M244.2,165c1.8-5.6,6.2-8.8,10.9-11.6C252.2,158,249.2,162.5,244.2,165L244.2,165z"/>
		<path id="XMLID_3_" class="st11" d="M269.8,136.9c2-2.9,3.1-6.7,8.1-8.7c-1.7,4.7-3.1,8.1-7.7,9
			C270.1,137.2,269.9,137.1,269.8,136.9z"/>
		<path id="XMLID_185_" class="st11" d="M256,191.9c-0.1,2.7-0.8,4.9-4.2,5.9c-0.7-3.5,0.9-5.3,3.9-6.2
			C255.8,191.6,256,191.9,256,191.9z"/>
		<path id="XMLID_186_" class="st11" d="M270.2,137.3c-0.4,1.1-1.2,1.8-2.4,2c0,0-0.2-0.2-0.2-0.2c0.2-1.3,1-1.9,2.2-2.1
			C269.9,137.1,270.1,137.2,270.2,137.3z"/>
	</g>
</g>
</svg>
