<?xml version="1.0" encoding="utf-8"?>
<!-- Generator: Adobe Illustrator 19.0.0, SVG Export Plug-In . SVG Version: 6.00 Build 0)  -->
<svg version="1.1" id="Camada_1" xmlns="http://www.w3.org/2000/svg" xmlns:xlink="http://www.w3.org/1999/xlink" x="0px" y="0px"
	 viewBox="0 0 539.7 347.9" style="enable-background:new 0 0 539.7 347.9;" xml:space="preserve">
<style type="text/css">
	.st0{fill:#EA395F;stroke:#AD1602;stroke-miterlimit:10;}
	.st1{fill:#B9D660;}
	.st2{fill:#8D5257;}
	.st3{fill:#87C440;}
	.st4{fill:#BE2227;}
	.st5{fill:#613422;}
	.st6{fill:#ADD04F;}
	.st7{fill:#A0C7C7;}
	.st8{fill:#74A340;}
	.st9{fill:#B05D3C;}
	.st10{fill:#934B35;}
	.st11{fill:#FED87D;stroke:#AD1602;stroke-width:0.5182;stroke-miterlimit:10;}
</style>
<g>
	<g>
		<path class="st0" d="M51.7,137.2c0-4.6,1.3-6.9,3.8-6.9c1.5,0,2.5,0.2,2.9,0.7s1.3,1.1,2.5,2.1c1.2,0.9,4.8,1.4,10.6,1.4
			c5.8,0,11.8-1.6,18.1-4.9c6.3-3.3,11.7-7.7,16.2-13.3c9.6-11.8,14.4-25.7,14.4-41.9c0-12.6-3.1-23.2-9.2-32
			c-6.1-8.7-14.1-13.1-24-13.1c-7.9,0-13.9,0.6-18,1.8L26.7,238.7c-0.8,2.6-3,3.9-6.4,3.9c-3.4,0-5.2-1.2-5.2-3.7
			c0-0.7,0.1-1.4,0.3-2.3c0.2-0.9,0.7-3,1.3-6.3c1.6-8.5,7.2-35.5,16.8-81c9.5-45.6,17.6-83.1,24.3-112.7c-2.2,1.4-4.9,3.6-8.1,6.4
			c-0.2,1.6-0.9,3.1-2.4,4.3C46,48.4,44.4,49,42.5,49l-2.8-0.7c-2.1-1-3.1-2.5-3.1-4.7c0-4.2,2.5-8.1,7.4-11.6
			c4.9-3.6,11-6.3,18.4-8.1c2.7-6.4,5.2-9.7,7.4-9.7c1.8,0,3.1,2.5,4,7.6c3.2-0.4,6.3-0.7,9.2-0.7c16.1,0,28.3,5.7,36.5,17.1
			c6.8,9.4,10.2,21.9,10.2,37.4c0,19.9-5.9,36.5-17.6,49.8C100.4,138.7,84,145.3,63,145.3c0,25.6,4.3,50.6,13,74.9
			c10.1,28.7,25.5,49.8,46,63.5c15.7,10.5,34.3,15.7,55.6,15.7s40.8-7.2,58.5-21.6c5.3-4.4,10.9-9.2,16.6-14.4
			c0.6-0.6,1.6-0.9,2.9-0.9c2.8,0,4.2,1.4,4.2,4.2c0,1.6-0.6,3.1-1.8,4.6c-11.4,11.8-22.5,20.6-33.4,26.4c-14.8,8-31.6,12-50.3,12
			c-18.7,0-36.8-5.4-54.4-16.2c-31.7-19.6-52.7-52.6-62.8-99.1C53.6,177.7,51.7,158.6,51.7,137.2z"/>
		<path class="st0" d="M134.9,180.7c-2.8,0-4.2-1.4-4.2-4.3c0-2.4,1.3-4.2,3.9-5.5c2.6-1.3,5.9-1.9,9.8-1.9c3.9,0,8.8,0.4,14.7,1.1
			c5.9,0.7,12.2,1.1,19,1.1c6.8,0,14.5-1.2,23.1-3.5h1.3c1.4,0,2.5,0.4,3.1,1.1c0.7,0.7,1,1.5,1,2.4c0,7.2-15.3,10.8-45.8,10.8
			c-7.1,0-11.8-0.5-14-1.6l-6.4-0.2l-4.4,0.7c-0.3,0-0.4-0.1-0.4-0.2H134.9z"/>
	</g>
</g>
<g>
	<g>
		<path class="st0" d="M311.9,132.9c1.7-6.8,3.2-11.1,4.4-12.9c1.3-1.8,3.1-2.8,5.6-2.8s3.7,0.9,3.7,2.7s-3.4,17.5-10.1,47
			c-6.7,29.5-11.3,49.8-13.6,60.7c3-2.6,5.7-5.1,8-7.4c2.3-2.3,4.4-4.3,6.2-5.8s3.4-2.4,4.7-2.4c2.8,0,4.3,1.3,4.3,3.8
			c0,1.6-0.6,3.1-1.8,4.6c-8.4,7.5-16.4,14.1-23.9,19.8c-6.4,35.4-12.6,58.7-18.4,70c-1.6,3.1-3.6,6-6.2,8.8
			c-6.1,6.9-13,10.3-20.8,10.3c-7.8,0-13.8-2.9-18.1-8.6c-4.3-5.7-6.4-11.3-6.4-16.7c0-5.4,0.7-10.1,2-14.1c1.3-4,3.2-7.6,5.5-10.9
			c2.3-3.3,5.1-6.3,8.2-9.2c3.1-2.8,6.5-5.5,10.1-8.1c3.6-2.6,7.3-5.2,11.2-7.7c3.9-2.5,7.7-5.2,11.5-8.1l11.2-8.5
			c0.8-3.3,3.7-12.8,8.5-28.5c4.9-15.7,7.7-25.1,8.5-28.1c-6.4,18.8-14.3,33.4-23.7,43.9c-6.3,7-12.3,10.6-18,10.6
			c-5.7,0-10.4-2.3-14-6.9c-3.7-4.6-5.5-11-5.5-19.3c0-12.9,3.7-33.2,11-60.9c3.7-13.8,5.5-21.3,5.5-22.5c-0.3-2.2-0.2-3.7,0.4-4.5
			c2.2-2.9,4.7-4.4,7.6-4.4s4.4,1.5,4.4,4.5c0,2.8-2.8,15.7-8.5,38.7c-5.7,23.1-8.5,38.5-8.5,46.3c0,7.8,1,12.7,2.9,14.8s4.2,3,7,3
			c5.9,0,12.1-4.9,18.6-14.7c6.5-9.8,12.1-23.3,16.8-40.5C307.1,151.7,310.3,139.7,311.9,132.9z M286.5,250.7
			c-6.1,4.7-12,8.9-17.5,12.7c-5.5,3.7-10.3,7.5-14.4,11.2c-8.9,8.1-13.4,17.1-13.4,27.1c0,6.3,2.1,11.2,6.2,14.6c1.7,1.3,4,2,6.9,2
			c2.9,0,5.5-1,8-2.9c2.4-1.9,4.6-4.5,6.6-7.5c1.9-3.1,3.7-6.6,5.2-10.4c1.5-3.9,2.9-7.8,4.1-11.7c1.2-3.9,2.2-7.6,3.1-11.2
			c0.9-3.6,1.6-6.5,2.3-8.9L286.5,250.7z"/>
		<path class="st0" d="M495.8,238.9c-4.6,0-6.9-6.1-6.9-18.4c0-7.9,0.8-16.1,2.3-24.4c1.5-8.3,3.1-16.4,4.8-24.4
			c-2.8,4.9-5.4,10-7.9,15.2c-2.5,5.2-4.6,9.4-6.5,12.6c-1.9,3.2-3.4,5.9-4.5,8c-9.7,18.4-18.6,27.6-26.9,27.6
			c-8.3,0-12.4-8.2-12.4-24.6c0-21,3.3-44.9,10-71.5l3.5-13.9c1.4-5.1,3.8-7.6,7.2-7.6c1.9,0,3.3,1.3,3.9,3.9
			c-0.2,2.4-0.8,4.6-1.8,6.6c-1,2-1.7,4.3-2.1,6.7c-6.6,33.2-9.9,55.9-9.9,68.1l-0.2,10.8c0,6.1,1,9.2,3,9.2
			c5.8,0,15.8-13.8,29.8-41.3c2.2-4.2,4.8-9.5,8-15.8c3.1-6.4,5.6-11.2,7.4-14.5c1.8-3.3,3.4-6.5,4.8-9.6c5.9-13,11-19.4,15.3-19.4
			c2.6,0,3.9,1.4,3.9,4.3c0,2.9-1.5,7.6-4.4,14.2c-2.9,6.6-5.3,13.3-7.2,20.2c-5.4,19.2-8.7,39.3-10,60.3v1.2c0,2.2,0.5,3.9,1.4,5
			c0.9,1.1,1.6,1.9,2.1,2.4c0.4,0.5,0.7,1.5,0.7,3c0,1.5-0.9,2.9-2.6,4.2C498.9,238.3,497.3,238.9,495.8,238.9z"/>
	</g>
</g>
<g>
	<g>
		<path class="st1" d="M391,134c1.1-0.6,2.4-0.8,3.6-0.6c1.5,0.2,2.4,1.1,2.9,2.4c0.7,2.2,0.8,4.5,1.3,6.7c0.1,0.4,0.1,0.8,0.2,1.2
			c-0.3,0.2-0.2,0.6-0.2,0.9c0.3,2,0.9,3.9,2.1,5.6c1.6,2.3,5.7,3,8,1.4c3.9-0.2,7.1,1,9.2,4.4c0.2,0.3,0.5,0.6,0.5,1
			c-0.3,0-0.6,0-0.9,0c-3.4-0.3-5.4,1.7-6.2,3.5c-1.1,2.4-0.7,4.9,1.3,7.1c0.1,0.2,0.2,0.4,0.4,0.6c-1.7,1.3-3,2.9-4.4,4.4
			c-0.4-0.7,0-1.4,0.1-2.1c0.2-1.3,0.5-2.6,0.8-4.2c-0.3,0.3-0.5,0.3-0.6,0.5c-1.5,2.2-2,4.8-2.5,7.4c0,0.3,0,0.5,0.3,0.7
			c-1.4,2.4-2.7,4.7-3.6,7.3c-0.3-0.1-0.5-0.1-0.7-0.3c-2.1-2.6-4.2-5.2-6.1-7.9c-1.4-2-2.2-4.3-3.7-6.3c-3.5-4.7-6.9-9.4-10.6-13.9
			c-3.1-3.8-6.2-7.7-9.8-11.1c-0.9-0.8-1.7-2-3.1-2.1c0,0-0.1,0-0.1-0.1c0,0,0.1,0,0.1,0.1c0,0.1,0,0.3,0.1,0.4
			c2.6,3.3,5.1,6.6,7.7,9.8c4.5,5.7,8.9,11.5,13.1,17.4c1.3,1.8,2.1,4,3.4,5.7c1.9,2.6,3.9,5.1,6,7.6c1.4,1.6,2.6,3.5,4.4,4.8
			c-0.1,2-1,3.7-1.8,5.6c-0.2-0.3-0.3-0.5-0.4-0.6c-1.3-2.9-3.1-5.5-5.2-7.9c-1.2-1.3-2.5-2.6-4.3-3.4c0,0,0,0,0,0
			c-0.1-0.2-0.3-0.3-0.5-0.2l0,0c0-0.2-0.1-0.2-0.2-0.2l0,0c-0.1-0.1-0.2-0.2-0.2-0.3c-1.7-1.1-3.4-2.3-5.1-3.4c0-1.3,0.1-2.6,0-3.9
			c-0.1-2.9-0.7-5.7-2.1-8.3c-2-3.6-5-5.9-9.1-6.6c-1-0.3-2-0.3-3-0.4c-2.6-0.4-5.3-0.9-7.7-1.9c0.2-0.3,0.6-0.2,0.9-0.2
			c2.7,0.3,5.4,0.7,8.1,1c1.5,0.2,3,0.5,4.6,0.7c-0.6-0.5-1.3-0.8-1.9-1.1c-2.4-1.3-5-1.8-7.8-1.8c-2-0.1-3.9,0.3-5.8,0.5
			c-3-1.3-5.2-3.4-6.6-6.4c0-1.6,0.1-3.3-1.6-4.3c0.6-3.7,2.2-6.9,5-9.5c1.1-1,2.4-1.9,3.9-2.4c0.9-0.3,1.7-0.6,2.4-1.3
			c0.8-0.8,2.1-0.4,3.4,0.8c-0.2,0.1-0.2,0.2,0,0.2c0,0,0,0,0,0c0.6,1.4,1.7,2.3,2.8,3.2c2.7,2.2,5.8,3.5,9.3,3.4
			c3.5-0.1,6.7-1.3,9.6-3.2C391,134.4,391.3,134.3,391,134z M399.7,170.5c1.6-4.9,3.7-9.6,5.3-14.5
			C401.5,160.2,399.3,164.8,399.7,170.5z M385.5,151.7c1.9-4.6,4.2-9,6-13.7C387.8,141.8,385.4,146.3,385.5,151.7z M392.3,161.1
			c1.4-4.3,2-8.6,3.2-12.7C392.4,152,391.8,156.3,392.3,161.1z"/>
		<path class="st1" d="M354.2,227.2c-7.1-2.7-14-5.9-19.9-10.8c-3.9-3.2-6.5-7.2-6.4-12.6c0-1.9,0.5-3.7,1.6-5.3
			c0.2-0.3,0.4-0.5,0.5-0.9c0.3-2,0.5-2.2,2.5-2.2c0.1,0.1,0.2,0.3,0.3,0.3c1.9,0.4,3.8,0.4,5.7,0.2c1.9-0.2,3.4-1.2,5.1-2
			c3,0.9,5.6,0.6,7.7-1.9c0.1,0.3,0.2,0.6,0.3,0.9c0.3,2.7,1.7,4.8,3.3,7c0.2-0.7-0.2-1.1-0.4-1.6c-0.7-2.6-1.5-5.2-2.3-7.8
			c0.7-2.8,0.1-5.1-2-7c0.2-0.4,0.7-0.6,0.9-0.9c1.7-0.2,3,0.3,4.3,1.4c1.3,1.2,2.6,2.3,4,3.4c0.1,0.2,0.3,0.2,0.4,0.2
			c0.1,0.1,0.2,0.2,0.2,0.2c0,0.3,0.2,0.4,0.5,0.4l0,0c0.8,1,1.9,1.4,3,1.8c2.3,0.8,4.7-0.1,6.2-2.7c2-2.5,4.6-3.6,7.8-3.2
			c0.3,0.3,0.6,0.2,0.9,0.2c1.7,0.6,3.5,1.2,5.2,2c5.6,2.5,10.3,6.1,14.3,10.7c2.1,2.4,3.9,5,5.3,7.9c0.1,1.1-0.1,2.1-0.3,3.2
			c-0.3,0-0.5-0.3-0.8-0.5c-3.3-3.2-7.2-5.4-11.6-6.7c-2.9-0.8-5.9-1.6-8.9-0.2c-0.9-1.6-1.9-3.1-2.8-4.7c0,2.1,0.8,3.9,1.9,5.6
			c-0.3,0.4-0.6,0.8-0.9,1.2c0,0.1,0,0.1,0,0.2l0,0c-1,0.8-1.9,1.7-3.2,2c-0.9,0.2-1.8-0.2-2.7-0.2l0,0c-0.1-0.2-0.3-0.2-0.5-0.2
			c-0.8-0.4-1.5-0.8-2.3-1.3c-0.6-0.3-1.2-0.6-1.8-0.9c-1.8-0.9-2.8-0.4-3.8,2c-0.1,0.2-0.2,0.4-0.3,0.7c-4-0.8-7.9-1.6-11.9-2.4
			c-4.6-0.9-9.3-1.7-14-1.5c-0.3,0-0.8-0.2-1,0.3c0.2,0,0.3,0.1,0.4,0.1c6.4,1.3,12.8,2.6,19.1,3.9c2.2,0.4,4.4,1.2,6.7,1.4
			c0,0.6-0.3,1.2-0.7,1.7c-1.8,2.6-4.3,4.1-7.4,4.8c-0.8,0.2-1.8,0.2-2.1,1.3c-0.6,2.7-0.9,5.5,0.5,8.1
			C354.3,224.3,354.1,225.8,354.2,227.2z M374.2,203.7c-1.6-3.8-2.6-7.8-4.3-11.9C369.6,195.2,370.9,200.7,374.2,203.7z
			 M352.3,207.2c-3.7,0.2-10.3,4.6-10.3,6.7C345.4,211.7,348.8,209.5,352.3,207.2z M359.6,192.4c-0.4,3.5,2.5,8,4.6,9.3
			C362.9,198.4,360.9,195.6,359.6,192.4z"/>
		<path class="st2" d="M402.7,208.2c0.2-1.1,0.4-2.1,0.3-3.2c0.2-1.2-0.1-2.4-0.6-3.5c-1.1-2.4-1.4-4.8-0.7-7.3
			c0.2-0.7,0.1-1.2-0.2-1.8c-2.1-4.2-4.9-8-8.3-11.3c-0.3-0.3-0.8-0.5-0.7-1.1c1.7,0.7,3,2,4.3,3.4c2.2,2.3,3.9,5,5.2,7.9
			c0.1,0.2,0.2,0.3,0.4,0.6c0.8-1.9,1.7-3.7,1.8-5.6c0.1-0.8-0.1-1.5-0.4-2.2c-0.3-0.6-0.5-1.2-0.4-1.9c0.9-2.6,2.2-5,3.6-7.3
			c0.7-0.7,1.2-1.5,1.8-2.3c1.4-1.5,2.8-3.1,4.4-4.4c0.3,0,0.5,0.1,0.7,0.3c2.6,1.5,5.5,1.1,7.6-1c0.6-0.6,0.8-1.5,1.5-2
			c0.4-0.1,0.9,0,1.3-0.2c0.9-0.5,1.8-0.4,2.5,0.4c0.3,0.3,0.6,0.4,1,0.3c1.5-0.4,2.9,0.2,4,1.2c1.6,1.5,2.3,3.5,2.6,5.7
			c0.1,0.8-0.2,1.3-0.9,1.6c-0.7,0.3-1.2,0.7-1.8,1.2c-0.9-0.2-1.4,0.4-1.7,1.1c-1.3,3.1-0.6,6,0.8,8.9c0.4,1,0.7,2,0.9,3
			c-0.4,0.1-0.4,0.4-0.4,0.7c-0.1,0.9-0.5,1.8-0.9,2.7c-1.5,2.7-4,4.3-6.6,5.8c-0.6,0.3-1.3,0.5-1.7,0.9c-0.6,0.6,0.4,1.2,0.2,1.8
			c0.1,4-1.6,7.2-4.3,10c-2.2,2.3-4.9,4.1-7.8,5.4c-1.3-1.4-2.8-2.5-4.3-3.7c-0.1-0.1-0.1-0.2-0.2-0.2l0,0c-0.2-0.3-0.4-0.6-0.6-1
			C404.3,209.9,403.2,209.3,402.7,208.2z M412.5,171.8c0.1,0.1,0.1,0.2,0.2,0.2c0.6,1.4,1.7,2.5,2.9,3.6c0-1.5-1.4-3.1-2.9-3.6
			C412.7,172,412.6,171.9,412.5,171.8C412.5,171.8,412.5,171.8,412.5,171.8C412.5,171.8,412.5,171.8,412.5,171.8z M409.1,179.4
			C409.1,179.3,409.1,179.3,409.1,179.4c0-0.1-0.1-0.1-0.1-0.1C409.1,179.3,409.1,179.3,409.1,179.4c0.1,0.1,0.1,0.2,0.2,0.2
			c0.9,1.8,2.2,3.3,3.3,4.9c-0.6-2-1.3-3.8-3.2-4.9C409.3,179.5,409.2,179.4,409.1,179.4z M408.9,196.3
			C408.9,196.3,408.9,196.3,408.9,196.3c-0.1-0.1-0.1-0.1-0.1-0.1C408.8,196.3,408.8,196.3,408.9,196.3c0.4,1.7,1.3,3,2.4,4.1
			C411.2,198.6,410.3,197.4,408.9,196.3z M419.2,194.7c1.8-0.5,3.4-1.2,5-2c-1.5-0.2-2.8,0.3-4.1,0.8
			C419.7,193.8,419.3,194.1,419.2,194.7c-0.1,0-0.2,0-0.3,0.1c0,0,0.1,0.1,0.1,0.1C419,194.8,419.1,194.8,419.2,194.7z M416,203
			c1.8-0.8,3.1-2.3,4.6-3.3C418.7,200.2,416.8,200.8,416,203c-0.1,0.1-0.3,0.1-0.1,0.3C415.9,203.2,416,203.1,416,203z M408.9,183.9
			c0,0-0.1-0.1-0.1-0.1C408.8,183.9,408.8,183.9,408.9,183.9c0.9,2,2.4,3.6,3.8,5.3c-0.2-1-0.6-1.8-1.1-2.6
			C410.8,185.6,410.1,184.5,408.9,183.9z M412.3,206.9c0.3,0,0.4-0.1,0.4-0.2c1.3-2.2,2.4-4.4,3.1-6.9c0.9-3.3,1.5-6.6,0.8-9.9
			c-1.1-5.1,0.1-9.6,3.1-13.7c1.1-1.5,2.5-2.8,3.8-4.1c-1.3,0.4-2.6,0.9-3.5,2c-4,4.5-5.6,9.8-4.8,15.8c0,0.3,0,0.7,0.1,1
			c0.2,3.1-0.4,6.2-1.1,9.3C413.7,202.4,413,204.6,412.3,206.9z M407.8,188.8c-0.1,0.1-0.2,0.1-0.3,0.2c1.2,1.7,2.5,3.4,3.7,5.2
			C410.7,192,409.6,190.1,407.8,188.8z M425.6,182.1c-1.9,0-3.7,0-5,1.5c0,0.1,0.1,0.2,0.1,0.3C422.4,183.3,424,182.7,425.6,182.1z
			 M424.5,187.2c-2.7-0.2-5,0.8-5.1,2C421,188.6,422.7,187.9,424.5,187.2z M413.9,179.9c-0.2-2.6-1.1-3.9-2.8-4.3
			C412.1,177,413,178.2,413.9,179.9z M422.1,178.7c1.7-0.5,3.4-1.1,5.1-1.6c0-0.1-0.1-0.2-0.1-0.3
			C425.4,177.2,423.5,177.2,422.1,178.7z"/>
		<path class="st2" d="M372.2,156.7c1,0.1,2,0.1,3,0.4c1.2,0.8,2.5,1.3,3.5,2.3c4.9,4.4,6.5,10.1,7,16.4c-1.5-0.3-2.9-0.2-4.3,0.1
			c1.1-2.6,0.3-4.8-1.4-6.9c0.1-0.1,0.4-0.1,0.5-0.4c-0.6-0.1-1.1-0.2-1.6-0.3c-0.1-0.2-0.3-0.2-0.4-0.2l0,0c-0.5-0.6-1.2-0.6-2-0.7
			c-2.6-0.2-4.6,0.8-6.1,3c0-1.5,0-2.9,0-4.4c-1.4,2.2-1.4,4.6-1.4,6.9c-0.9-1.4-1.8-2.7-2.7-4.1c-0.8-1.2-1.7-2.2-3.2-2.2
			c0-1.9,0-3.8,0-5.7c-1.1,1.9-1.1,4-1.3,6c-0.8,0.7-1.8,1.1-2.3,2c-0.4,0.2-0.8,0.5-1.1,0.8c-0.8,0.7-1.4,1.6-2.3,2
			c-4.5-4-7.3-9-9.3-14.7c-0.1,1.5-0.1,2.9,0.2,4.3c1.1,4.7,4,8.1,7.4,11.2c-1.7,0.8-3.5,1.2-5.3,1.4c-2.6,0.2-5.2-0.4-7.7-1
			c-0.2-0.1-0.4-0.2-0.5-0.3c3.7-0.5,6-1.1,6.8-2.1c-2.9-0.5-5.5,0.4-7.9,1.9c-0.6,0.1-1.1,0.5-1.3,1c-0.2,0.9-0.9,1.2-1.5,1.7
			c-2.8-5.4-4.7-11.1-6.1-17c-0.1-0.6,0-0.7,0.6-0.8c2.7-0.5,4.7-2.6,5.1-5.1c0-0.2,0.1-0.3,0.1-0.4c-0.7-1.8,0.6-2.2,1.8-2.7
			c0.6-0.3,1-0.7,1.2-1.5c0.6-3,3.6-5.1,7.2-5.3c2.6-0.1,5.1,0.2,7.6,0.7c1.7,1,1.6,2.7,1.6,4.3c-0.2,3.2,1.4,5.3,4.1,6.8
			c2.6,1.4,5.5,2.1,8.4,2.3C369.7,156.7,371,157.2,372.2,156.7z M356,164.7c0.1-3,0.5-5.8,0.5-8.9C355,158.8,354.7,162,356,164.7z"
			/>
		<path class="st3" d="M381.4,175.9c1.4-0.3,2.9-0.4,4.3-0.1c0.2,0.2,0.4,0.2,0.7,0.1c1.7,1.1,3.4,2.3,5.1,3.4
			c-0.2,0.3,0.1,0.2,0.2,0.3l0,0c0.1,0.1,0.2,0.2,0.2,0.2l0,0c0.1,0.2,0.2,0.3,0.5,0.2c0,0,0,0,0,0c-0.1,0.6,0.4,0.8,0.7,1.1
			c3.4,3.3,6.2,7,8.3,11.3c0.3,0.6,0.4,1.2,0.2,1.8c-0.6,2.5-0.4,5,0.7,7.3c0.5,1.1,0.9,2.2,0.6,3.5c-1.4-2.9-3.2-5.5-5.3-7.9
			c-4-4.6-8.7-8.2-14.3-10.7c-1.7-0.8-3.4-1.4-5.2-2c0-1,0-2,0-3c-0.6,0.9-1,1.8-0.9,2.8c-3.2-0.4-5.8,0.7-7.8,3.2
			c-0.1,0-0.2,0-0.2,0c-0.2-2.9-0.9-5.8-1.3-8.7c-0.4,0.7-0.6,1.4-0.6,2.2c-0.1,2.3,0.2,4.6,1.2,6.7c-1,1.1-2.4,1.4-3.9,1.6
			c-1.6,0.2-2.9-0.6-4.4-0.9l0,0c0-0.3-0.1-0.5-0.5-0.4c-0.1-0.1-0.2-0.2-0.2-0.2c-0.1-0.2-0.3-0.2-0.4-0.2c-1.3-1.1-2.7-2.2-4-3.4
			c-1.2-1.1-2.6-1.6-4.3-1.4c-2-0.8-4-1.8-6.4-2.1c0.6,1,2,0.7,2.2,1.8c-1.6,0.1-2.3,1.1-2.2,3c0.1,2-0.6,2.7-2.7,2.9
			c0.3-0.5,1.3-0.6,1-1.5c-0.5-1.7-0.2-3.1,1.5-4.1c-1.5,0.3-2.6,1.1-3.4,2.4c-1.4,2.2-1.6,5.1,1,7.9c-1.4,1.1-3,1.8-4.8,2
			c-1.3-2.1-2.5-4.2-3.2-6.7c-1.2-4.8-0.6-9.1,2.9-12.8c0.6-0.5,1.3-0.8,1.5-1.7c0.1-0.5,0.7-0.9,1.3-1c0.3,0,0.7,0.1,1.1,0.1
			c0.2,0.1,0.4,0.2,0.5,0.3c2.8,2.1,5.9,2.7,9.3,2.2c2.9-0.4,5.3-2,7.2-4c0.6-0.6,1.6-1.1,1.6-2.3c0.6-0.9,1.6-1.3,2.3-2
			c0.4-0.1,0.9-0.2,1.3-0.3c1.6,0,2.5,1,3.2,2.2c0.9,1.3,1.8,2.7,2.7,4.1c0.2,0.4,0.4,0.7,0.5,1.1c0,0.2,0,0.4,0.3,0.5l0,0
			c0.3,1.5,1.5,2.3,2.5,3.2c1.8,1.6,5.3,1.4,7-0.9l0,0c0.1-0.1,0.2-0.1,0.3-0.2C380.2,176.4,380.8,176.2,381.4,175.9z M361.6,171.6
			c-1.9,3.6-2,10.4-0.3,12.8C361.1,180.1,361.8,175.8,361.6,171.6z"/>
		<path class="st1" d="M405.7,212.1c1.4,1.2,3,2.3,4.3,3.7c0.7,1.9-0.4,3-1.7,4.1c-2,1.7-4.1,3.2-5.8,5.3c-0.8,1.1-1.5,2.2-2.1,3.4
			c-1.5,3.1-4,4.8-7.3,5.4c-5.1,1-10.2,1.4-15.4,0.4c-1.6-0.3-2.9-1.1-4.2-1.9c-0.2-0.2-0.5-0.4-0.7-0.6c-0.1-0.7-0.7-1.1-1-1.7
			c0.6-1.7,1-3.4,0.9-5.2c2-0.2,4-2.4,4.4-4.6c0.3-1.4,0.1-2.8,0-4.1c0-0.1,0-0.1,0-0.2c0.3-1.4,1.1-1.9,2.6-1.6
			c1.1,0.2,2.1,0.5,3.2,0.7c1.4,0.3,2.7,0.3,3.7-1c0.4-0.6,0.2-1.3,0.5-1.8c0.9-1.3,0.9-2.6,0.1-3.9l0,0c1,1.4,2.3,1.1,3.8,0.8
			c3.9-0.8,7.7-0.2,11.3,1.3c1.1,0.4,2,1.2,3.2,1.4l0,0C405.5,212,405.6,212.1,405.7,212.1z M376.1,226.4c0.6,0.3,1,0,1.4-0.1
			c2.9-0.8,5.8-1.6,8.8-2.5c4-1.2,8.2-1.5,12.1-3c1.7-0.6,3.4-1.3,5-2.1c0.3-0.1,0.6-0.4,0.5-0.7c-0.2-0.4-0.5-0.1-0.8,0
			c-1.6,0.6-3.3,1.2-4.9,1.8c-2.5,0.9-5.2,1.2-7.7,1.8c-3,0.6-6,1.5-8.9,2.4C379.8,224.7,377.9,225.2,376.1,226.4z"/>
		<path class="st4" d="M372.6,224.9c0.1,1.8-0.3,3.5-0.9,5.2c-0.3,0.5-0.6,0.9-0.9,1.4c-1.3,1.6-3,2.8-5,3.5
			c-4.3,0.9-7.7-0.3-10.3-4c-0.8-1.1-1.1-2.5-1.5-3.8c-0.1-1.5,0.1-2.9,0.5-4.3c1.1-2.6,2.8-4.5,5.5-5.5c2-0.7,4.1-0.7,6.1-0.2
			c0.4,0.4,1,0.3,1.3,0.9c-0.4,0-0.8,0.1-1.1,0c-1.9-0.5-3.3,0.3-4.2,1.9c-0.7,1.3-1.6,1.9-3,1.1c-0.1-0.1-0.3,0-0.8,0
			c0.8,0.5,1.3,0.8,1.9,1.1c1.5,0.6,3.1,1.1,4.5-0.8c0.3-0.4,0.7-0.8,1.1-1.1c1.7-1.5,3.7-1.2,5,0.6c0.9,1.2,1.2,2.7,1.7,4.1
			C372.6,224.9,372.6,224.9,372.6,224.9z"/>
		<path class="st4" d="M422.9,165.4c-0.6,0.5-0.8,1.4-1.5,2c-2.1,2.1-5,2.5-7.6,1c-0.2-0.1-0.5-0.3-0.7-0.3
			c-0.1-0.2-0.2-0.4-0.4-0.6c-2-2.2-2.5-4.7-1.3-7.1c0.9-1.8,2.8-3.8,6.2-3.5c0.3,0,0.6,0,0.9,0l0,0c0,0.1,0.1,0.2,0.2,0.2
			c0.3,0.1,0.6,0.3,1,0.4c-0.4,0-0.8,0.1-1.1,0.1c-1.1-0.1-1.9,0.3-2.4,1.2c-0.5,0.9-1.1,1.4-2.3,1.1c1.6,1.4,2.9,1.3,3.9-0.1
			c0.8-1.1,1.9-1.5,3.2-1.4c0.8,0.8,1.5,1.7,1.9,2.8C423.3,162.5,423.1,164,422.9,165.4z"/>
		<path class="st3" d="M391,134c0.3,0.3,0,0.4-0.2,0.5c-2.9,1.9-6.2,3.1-9.6,3.2c-3.5,0.1-6.6-1.2-9.3-3.4c-1.1-0.9-2.2-1.8-2.8-3.2
			c0.5,0,0.8,0.4,1.1,0.7c4,3.3,8.7,4.6,13.8,4.4c1.8-0.1,3.4-0.9,5.1-1.5C389.8,134.4,390.4,134.2,391,134z"/>
		<path class="st3" d="M408.9,151.5c-2.2,1.6-6.3,0.9-8-1.4c-1.2-1.7-1.8-3.6-2.1-5.6c0-0.3-0.1-0.6,0.2-0.9
			c0.5,2.1,1.3,4.1,2.9,5.6C403.8,151.2,406.3,151.5,408.9,151.5z"/>
		<path class="st5" d="M422.1,200.4c0.2-0.6-0.7-1.3-0.2-1.8c0.4-0.4,1.1-0.6,1.7-0.9c2.6-1.5,5.1-3.1,6.6-5.8
			c0.5-0.8,0.8-1.7,0.9-2.7c0-0.3,0-0.6,0.4-0.7c0.4,3.3-1,5.6-3.6,7.5c-1.2,0.9-2.4,1.6-3.8,1.9
			C422.8,198.3,422.2,199.1,422.1,200.4z"/>
		<path class="st6" d="M337.2,194.9c1.8-0.3,3.4-0.9,4.8-2c0.5,0.4,1,0.6,1.4,1.1c-1.6,0.8-3.2,1.8-5.1,2c-1.9,0.2-3.8,0.2-5.7-0.2
			c-0.1,0-0.2-0.2-0.3-0.3C334,195.4,335.7,195.5,337.2,194.9z"/>
		<path class="st3" d="M421,158.3c-1.3,0-2.4,0.4-3.2,1.4c-1.1,1.4-2.4,1.5-3.9,0.1c1.2,0.4,1.8-0.2,2.3-1.1
			c0.5-0.9,1.3-1.3,2.4-1.2c0.4,0,0.8,0,1.1-0.1c0.5,0.1,1,0.2,1.4,0.4C421.6,158.1,421.3,158.2,421,158.3z"/>
		<path class="st7" d="M365.9,235c2-0.7,3.7-1.9,5-3.5c0.6,0.1,1.2,0.2,1.8,0.3c0.2,0.2,0.5,0.4,0.7,0.6c-1.5,1.6-3.5,1.9-5.4,2.3
			C367.3,234.9,366.6,235.1,365.9,235z"/>
		<path class="st5" d="M430.6,185.6c-1.3-2.9-2.1-5.8-0.8-8.9c0.3-0.7,0.8-1.3,1.7-1.1c-2.1,2.9-1.8,6.1-1.1,9.3
			C430.5,185,430.6,185.3,430.6,185.6z"/>
		<path class="st7" d="M422.9,165.4c0.2-1.4,0.4-2.9,0-4.3c1.2,1.1,1.3,2.5,1.3,4C423.8,165.4,423.4,165.3,422.9,165.4z"/>
		<path class="st1" d="M418.8,157.1c-0.1,0-0.2,0-0.2-0.2C418.7,156.9,418.7,157,418.8,157.1z"/>
		<path class="st3" d="M369.1,131c-0.2-0.1-0.2-0.1,0-0.2C369.1,130.9,369.1,130.9,369.1,131C369.1,131,369.1,131,369.1,131z"/>
		<path class="st6" d="M403.3,182.2c-0.2,0.7,0.1,1.3,0.4,1.9c0.3,0.7,0.6,1.4,0.4,2.2c-1.7-1.3-3-3.1-4.4-4.8c-2.1-2.5-4.1-5-6-7.6
			c-1.3-1.8-2.1-3.9-3.4-5.7c-4.2-5.9-8.6-11.7-13.1-17.4c-2.6-3.3-5.2-6.5-7.7-9.8c-0.1-0.1-0.1-0.3-0.1-0.4l0,0
			c1.4,0.2,2.2,1.3,3.1,2.1c3.6,3.4,6.7,7.2,9.8,11.1c3.7,4.5,7.2,9.2,10.6,13.9c1.4,2,2.3,4.3,3.7,6.3c1.9,2.7,4,5.4,6.1,7.9
			C402.8,182.1,403,182.1,403.3,182.2z"/>
		<path class="st5" d="M386.4,175.9c-0.2,0-0.5,0-0.7-0.1c-0.5-6.2-2.1-12-7-16.4c-1.1-0.9-2.4-1.5-3.5-2.3c4.1,0.7,7.1,3,9.1,6.6
			c1.5,2.6,2,5.4,2.1,8.3C386.5,173.3,386.4,174.6,386.4,175.9z"/>
		<path class="st5" d="M372.2,156.7c-1.2,0.5-2.5,0-3.7-0.1c-2.9-0.2-5.8-0.9-8.4-2.3c-2.7-1.4-4.3-3.6-4.1-6.8
			c1.4,3,3.6,5.1,6.6,6.4c0.6,0.4,1.2,0.7,1.9,0.9C367,155.9,369.6,156.3,372.2,156.7z"/>
		<path class="st6" d="M364.5,154.8c-0.7-0.2-1.3-0.4-1.9-0.9c1.9-0.2,3.8-0.6,5.8-0.5c2.7,0.1,5.3,0.5,7.8,1.8
			c0.6,0.3,1.3,0.6,1.9,1.1c-1.5-0.2-3-0.5-4.6-0.7c-2.7-0.4-5.4-0.7-8.1-1C365,154.6,364.7,154.6,364.5,154.8z"/>
		<path class="st6" d="M399.7,170.5c-0.4-5.7,1.8-10.3,5.3-14.5C403.4,160.9,401.3,165.6,399.7,170.5z"/>
		<path class="st6" d="M385.5,151.7c0-5.5,2.3-9.9,6-13.7C389.7,142.7,387.4,147.1,385.5,151.7z"/>
		<path class="st6" d="M392.3,161.1c-0.5-4.8,0.1-9,3.2-12.7C394.3,152.5,393.6,156.8,392.3,161.1z"/>
		<path class="st6" d="M408.6,172.5c-0.6,0.8-1.1,1.6-1.8,2.3c-0.3-0.2-0.3-0.4-0.3-0.7c0.5-2.6,1-5.2,2.5-7.4
			c0.1-0.1,0.2-0.2,0.6-0.5c-0.3,1.6-0.6,2.9-0.8,4.2C408.7,171.1,408.3,171.8,408.6,172.5z"/>
		<path class="st2" d="M392.4,180.1c-0.2,0.1-0.4,0-0.5-0.2C392.1,179.8,392.3,179.8,392.4,180.1z"/>
		<path class="st2" d="M391.7,179.6c-0.2,0-0.4,0.1-0.2-0.3C391.5,179.4,391.6,179.5,391.7,179.6z"/>
		<path class="st2" d="M391.9,179.8c-0.1-0.1-0.2-0.2-0.2-0.2C391.8,179.6,391.9,179.7,391.9,179.8z"/>
		<path class="st6" d="M369.3,140.4C369.2,140.4,369.2,140.4,369.3,140.4C369.2,140.4,369.2,140.4,369.3,140.4L369.3,140.4z"/>
		<path class="st3" d="M360.1,217.4c-2.6,1-4.4,3-5.5,5.5c-1.4-2.6-1-5.4-0.5-8.1c0.2-1.1,1.2-1.1,2.1-1.3c0.2,0.3,0.5,0.2,0.7,0.2
			c3.8,0.1,7.5-3.1,8.2-7.4c0.1-0.6,0.6-1.1,0-1.7c1.1-2.4,2-2.9,3.8-2c0.6,0.3,1.2,0.6,1.8,0.9c0.8,0.4,1.5,0.8,2.3,1.3
			c0.1,0.2,0.3,0.2,0.5,0.2l0,0c1,0.9,2.3,1.2,3.6,0.8c1.2-0.4,2.1-1.2,2.4-2.6l0,0c0,0,0.1,0,0.1-0.1c0-0.1,0-0.1-0.1-0.2
			c0.3-0.4,0.6-0.8,0.9-1.2c0.4-0.2,0.7-0.5,0.9-0.9c3-1.4,5.9-0.6,8.9,0.2c4.4,1.2,8.3,3.5,11.6,6.7c0.2,0.2,0.4,0.5,0.8,0.5
			c0.5,1.1,1.6,1.7,2.2,2.7c0.2,0.3,0.4,0.6,0.6,1c-1.2-0.2-2.1-1-3.2-1.4c-3.7-1.4-7.5-2.1-11.3-1.3c-1.5,0.3-2.7,0.6-3.8-0.8
			c-0.1-0.1,0.1-0.3-0.2-0.2c0.1,0.1,0.1,0.2,0.2,0.2c0.8,1.3,0.9,2.6-0.1,3.9c-0.4,0.5-0.1,1.3-0.5,1.8c-1,1.3-2.3,1.3-3.7,1
			c-1.1-0.2-2.1-0.5-3.2-0.7c-1.5-0.3-2.3,0.1-2.6,1.6c-0.4-0.3-0.9-0.2-1.3-0.2c-4.2-0.1-8.4,0-12.6,0.5
			C362,216.4,360.8,216.2,360.1,217.4z M370.9,212.8c0,0.1,0.1,0.2,0.1,0.3c0,0,0.1,0,0.1-0.1C371,213,370.9,212.9,370.9,212.8
			c-1.2-2.3-2.3-4.6-3.5-6.9c0,1.5,0.4,2.8,1,4.1C369,211.1,369.5,212.3,370.9,212.8z M384.6,213.4c0.1-0.1,0.2-0.1,0.2-0.2
			c-1.4-2.3-2.8-4.6-4.1-6.9C381.2,209.2,382.2,211.7,384.6,213.4z M377.7,213.2c-1.3-1.7-2.6-3.3-3.9-5c-0.1,0.1-0.2,0.1-0.3,0.2
			C374.3,210.6,375.6,212.3,377.7,213.2z"/>
		<path class="st4" d="M343.4,194c-0.4-0.5-0.9-0.7-1.4-1.1c-2.6-2.8-2.4-5.7-1-7.9c0.8-1.2,1.9-2,3.4-2.4c-1.7,1-2,2.4-1.5,4.1
			c0.2,0.8-0.7,0.9-1,1.5c2.1-0.2,2.8-1,2.7-2.9c-0.1-1.9,0.7-2.9,2.2-3c1.2,0.2,2.2,0.6,3.2,1.2c2.1,1.9,2.8,4.3,2,7
			c-0.3,0.5-0.6,1.1-0.9,1.6C349,194.6,346.4,194.9,343.4,194z"/>
		<path class="st6" d="M364.3,207.1c-2.3-0.2-4.4-0.9-6.7-1.4c-6.4-1.3-12.8-2.6-19.1-3.9c-0.1,0-0.3-0.1-0.4-0.1
			c0.2-0.5,0.7-0.3,1-0.3c4.7-0.2,9.4,0.6,14,1.5c4,0.8,7.9,1.6,11.9,2.4C364.7,205.9,364.7,206.6,364.3,207.1z"/>
		<path class="st6" d="M374.2,203.7c-3.4-3-4.6-8.5-4.3-11.9C371.6,195.9,372.6,199.9,374.2,203.7z"/>
		<path class="st6" d="M352.3,207.2c-3.5,2.3-6.9,4.5-10.3,6.7C342,211.8,348.6,207.4,352.3,207.2z"/>
		<path class="st6" d="M351.1,192.1c0.3-0.5,0.6-1.1,0.9-1.6c0.8,2.6,1.6,5.2,2.3,7.8c0.1,0.5,0.6,0.9,0.4,1.6c-1.6-2.2-3-4.3-3.3-7
			C351.4,192.7,351.2,192.4,351.1,192.1z"/>
		<path class="st6" d="M359.6,192.4c1.4,3.2,3.3,6,4.6,9.3C362,200.4,359.2,195.9,359.6,192.4z"/>
		<path class="st8" d="M364.3,207.1c0.5-0.5,0.4-1.2,0.6-1.8c0.1-0.2,0.2-0.4,0.3-0.7c0.5,0.6,0,1.2,0,1.7c-0.7,4.3-4.3,7.5-8.2,7.4
			c-0.3,0-0.5,0-0.7-0.2c3-0.7,5.6-2.2,7.4-4.8C363.9,208.2,364.2,207.7,364.3,207.1z"/>
		<path class="st6" d="M360.3,188.3c1.5,0.3,2.8,1.1,4.4,0.9c1.4-0.2,2.8-0.4,3.9-1.6c0.2-0.1,0.5-0.2,0.7-0.3c0.1,0,0.2,0,0.2,0
			c-1.5,2.6-3.9,3.5-6.2,2.7C362.2,189.7,361.1,189.3,360.3,188.3z"/>
		<path class="st8" d="M350,183.5c-1-0.6-2-1.1-3.2-1.2c-0.3-1.1-1.6-0.8-2.2-1.8c2.4,0.3,4.4,1.3,6.4,2.1
			C350.7,182.9,350.2,183,350,183.5z"/>
		<path class="st6" d="M381.4,200.9c-0.2,0.4-0.5,0.7-0.9,0.9c-1.1-1.7-1.9-3.5-1.9-5.6C379.6,197.8,380.5,199.3,381.4,200.9z"/>
		<path class="st8" d="M379.6,203.2c-0.2,1.4-1.1,2.3-2.4,2.6c-1.3,0.4-2.5,0.1-3.6-0.8c0.9-0.1,1.8,0.4,2.7,0.2
			C377.7,204.9,378.6,204,379.6,203.2z"/>
		<path class="st8" d="M377.3,184.2c0-1,0.3-1.9,0.9-2.8c0,1,0,2,0,3C377.9,184.4,377.5,184.5,377.3,184.2z"/>
		<path class="st6" d="M359.9,187.9c0.3,0,0.5,0.1,0.5,0.4C360,188.3,359.9,188.2,359.9,187.9z"/>
		<path class="st8" d="M373.6,205c-0.2,0-0.4,0-0.5-0.2C373.3,204.8,373.5,204.8,373.6,205z"/>
		<path class="st6" d="M359.2,187.4c0.2,0,0.4,0,0.4,0.2C359.4,187.6,359.3,187.6,359.2,187.4z"/>
		<path class="st8" d="M379.6,203c0,0.1,0,0.1,0.1,0.2c0,0-0.1,0-0.1,0.1C379.6,203.1,379.6,203,379.6,203z"/>
		<path class="st5" d="M412.3,206.9c0.7-2.3,1.4-4.5,1.9-6.8c0.7-3,1.3-6.1,1.1-9.3c0-0.3,0-0.7-0.1-1c-0.8-6,0.8-11.3,4.8-15.8
			c0.9-1,2.2-1.6,3.5-2c-1.4,1.3-2.7,2.6-3.8,4.1c-3,4.1-4.2,8.6-3.1,13.7c0.7,3.4,0.1,6.7-0.8,9.9c-0.7,2.5-1.8,4.7-3.1,6.9
			C412.7,206.8,412.6,206.9,412.3,206.9z"/>
		<path class="st5" d="M408.9,183.9c1.3,0.6,1.9,1.7,2.6,2.7c0.5,0.8,1,1.6,1.1,2.6C411.3,187.6,409.8,186,408.9,183.9L408.9,183.9z
			"/>
		<path class="st5" d="M407.8,188.8c1.8,1.3,2.9,3.2,3.4,5.4c-1.2-1.7-2.5-3.4-3.7-5.2C407.6,188.9,407.7,188.9,407.8,188.8z"/>
		<path class="st5" d="M416,203c0.8-2.1,2.7-2.8,4.6-3.3C419,200.7,417.7,202.2,416,203L416,203z"/>
		<path class="st5" d="M419.2,194.7c0.1-0.6,0.5-0.9,1-1.1c1.3-0.5,2.6-1,4.1-0.8C422.6,193.5,420.9,194.2,419.2,194.7L419.2,194.7z
			"/>
		<path class="st5" d="M425.6,182.1c-1.6,0.6-3.3,1.2-4.9,1.9c0-0.1-0.1-0.2-0.1-0.3C421.9,182.1,423.7,182.1,425.6,182.1z"/>
		<path class="st5" d="M409.4,179.6c1.9,1.1,2.7,2.9,3.2,4.9C411.5,182.9,410.2,181.4,409.4,179.6L409.4,179.6z"/>
		<path class="st5" d="M424.5,187.2c-1.8,0.7-3.5,1.3-5.1,2C419.5,188,421.8,187,424.5,187.2z"/>
		<path class="st5" d="M408.9,196.3c1.4,1,2.4,2.3,2.4,4.1C410.2,199.3,409.2,198,408.9,196.3L408.9,196.3z"/>
		<path class="st5" d="M412.8,172c1.5,0.5,2.9,2.2,2.9,3.6C414.4,174.6,413.4,173.5,412.8,172L412.8,172z"/>
		<path class="st5" d="M413.9,179.9c-0.9-1.7-1.8-2.9-2.8-4.3C412.8,176,413.7,177.3,413.9,179.9z"/>
		<path class="st5" d="M422.1,178.7c1.4-1.5,3.2-1.6,5-1.9c0,0.1,0.1,0.2,0.1,0.3C425.5,177.7,423.8,178.2,422.1,178.7z"/>
		<path class="st5" d="M416,203c0,0.1,0,0.2-0.1,0.3C415.7,203.1,415.9,203,416,203L416,203z"/>
		<path class="st5" d="M419.2,194.7c-0.1,0.1-0.2,0.1-0.3,0.2c0,0,0-0.1-0.1-0.1C419,194.8,419.1,194.7,419.2,194.7L419.2,194.7z"/>
		<path class="st5" d="M409.3,179.6c-0.1-0.1-0.1-0.2-0.2-0.2l0,0C409.2,179.4,409.3,179.5,409.3,179.6L409.3,179.6z"/>
		<path class="st5" d="M408.9,196.3c0,0-0.1-0.1-0.1-0.1C408.8,196.2,408.8,196.2,408.9,196.3C408.9,196.3,408.9,196.3,408.9,196.3
			L408.9,196.3z"/>
		<path class="st5" d="M408.9,184c0,0-0.1-0.1-0.1-0.1C408.8,183.9,408.8,183.9,408.9,184L408.9,184z"/>
		<path class="st5" d="M412.5,171.8C412.5,171.8,412.5,171.8,412.5,171.8C412.5,171.8,412.5,171.8,412.5,171.8L412.5,171.8z"/>
		<path class="st3" d="M405.7,212.1c-0.1-0.1-0.1-0.2-0.2-0.2C405.5,212,405.6,212.1,405.7,212.1z"/>
		<path class="st5" d="M412.5,171.8c0.1,0.1,0.2,0.1,0.2,0.2c0,0,0,0,0,0C412.7,172,412.6,171.9,412.5,171.8L412.5,171.8z"/>
		<path class="st5" d="M409.1,179.4C409.1,179.3,409.1,179.3,409.1,179.4C409,179.3,409.1,179.3,409.1,179.4
			C409.1,179.3,409.1,179.3,409.1,179.4L409.1,179.4z"/>
		<path class="st4" d="M381.4,175.9c-0.6,0.2-1.2,0.5-1.8,0.7c-0.1,0.1-0.2,0.1-0.3,0.2c0,0,0,0,0,0c-0.4,0.1-0.8,0.2-1.2,0.3
			c-2.9,1-5.3,0.4-7.4-1.8c-0.3-0.3-0.5-0.7-0.9-0.8l0,0c0-0.1-0.1-0.3-0.1-0.4c-0.1-1.3,0.2-2.5,0.7-3.6c1.4-2.2,3.4-3.2,6.1-3
			c0.7,0.1,1.4,0.1,2,0.7c-1.1,0-2.2-0.3-3,0.8c-0.7,0.9-1.2,2.1-2.8,1.2c2.2,1.6,2.8,1.5,4.5-0.2c0.8-0.9,1.8-1,2.9-0.9
			C381.7,171.1,382.5,173.3,381.4,175.9z"/>
		<path class="st5" d="M354.4,172.7c-3.4-3.1-6.3-6.6-7.4-11.2c-0.3-1.4-0.4-2.9-0.2-4.3c1.9,5.6,4.8,10.7,9.3,14.7
			C355.6,172.4,355,172.6,354.4,172.7z"/>
		<path class="st8" d="M354.4,172.7c0.6-0.2,1.2-0.4,1.6-0.9c1-0.4,1.6-1.3,2.3-2c0.3-0.3,0.7-0.6,1.1-0.8c0,1.1-1,1.6-1.6,2.3
			c-2,2.1-4.4,3.7-7.2,4c-3.3,0.5-6.5-0.1-9.3-2.2c2.5,0.6,5.1,1.2,7.7,1C350.9,174,352.7,173.5,354.4,172.7z"/>
		<path class="st3" d="M380,169c-1.1,0-2.1,0.1-2.9,0.9c-1.7,1.8-2.2,1.8-4.5,0.2c1.6,0.8,2.1-0.3,2.8-1.2c0.8-1.1,2-0.8,3-0.8l0,0
			c0.1,0.2,0.3,0.2,0.4,0.2c0.5,0.1,1.1,0.2,1.6,0.3C380.5,169,380.2,168.9,380,169z"/>
		<path class="st5" d="M340.8,172.8c-0.4,0-0.7-0.1-1.1-0.1c2.4-1.5,4.9-2.4,7.9-1.9C346.8,171.7,344.6,172.4,340.8,172.8z"/>
		<path class="st5" d="M370.4,170.5c-0.5,1.1-0.8,2.3-0.7,3.6c-0.1,0-0.1,0-0.2,0c-0.2-0.4-0.4-0.7-0.5-1.1c0-2.4,0-4.8,1.4-6.9
			C370.4,167.5,370.4,169,370.4,170.5z"/>
		<path class="st5" d="M356,164.7c-1.3-2.6-1-5.9,0.5-8.9C356.5,158.9,356,161.6,356,164.7z"/>
		<path class="st5" d="M363.1,166.8c-0.4,0.1-0.9,0.2-1.3,0.3c0.2-2,0.3-4.1,1.3-6C363.1,163,363.1,164.9,363.1,166.8z"/>
		<path class="st4" d="M378.9,168.4c-0.2,0-0.4,0-0.4-0.2C378.6,168.2,378.8,168.2,378.9,168.4z"/>
		<path class="st8" d="M361.6,171.6c0.2,4.3-0.5,8.5-0.3,12.8C359.6,182,359.7,175.2,361.6,171.6z"/>
		<path class="st8" d="M369.8,174.5c0.4,0.1,0.7,0.5,0.9,0.8c2.1,2.1,4.5,2.8,7.4,1.8c0.4-0.1,0.8-0.2,1.2-0.3
			c-1.7,2.3-5.1,2.5-7,0.9C371.3,176.8,370.1,176,369.8,174.5z"/>
		<path class="st8" d="M369.3,187.4c-0.2,0.1-0.5,0.2-0.7,0.3c-0.9-2.2-1.3-4.4-1.2-6.7c0-0.8,0.2-1.5,0.6-2.2
			C368.4,181.6,369.1,184.4,369.3,187.4z"/>
		<path class="st8" d="M369.5,174.1c0.1,0,0.1,0,0.2,0c0,0.1,0.1,0.3,0.1,0.4C369.5,174.5,369.5,174.3,369.5,174.1z"/>
		<path class="st8" d="M379.3,176.8c0.1-0.1,0.2-0.1,0.3-0.2C379.5,176.7,379.4,176.8,379.3,176.8z"/>
		<path class="st6" d="M376.1,226.4c1.8-1.2,3.7-1.7,5.5-2.3c2.9-0.9,5.9-1.8,8.9-2.4c2.6-0.6,5.2-0.8,7.7-1.8
			c1.6-0.6,3.3-1.2,4.9-1.8c0.3-0.1,0.6-0.4,0.8,0c0.2,0.3-0.2,0.5-0.5,0.7c-1.6,0.9-3.3,1.5-5,2.1c-3.9,1.4-8.1,1.8-12.1,3
			c-2.9,0.9-5.8,1.7-8.8,2.5C377.1,226.4,376.8,226.7,376.1,226.4z"/>
		<path class="st8" d="M360.1,217.4c0.7-1.1,1.9-1,2.9-1.1c4.2-0.5,8.4-0.6,12.6-0.5c0.5,0,0.9-0.1,1.3,0.2c0,0.1,0,0.1,0,0.2
			c-0.3,0.3-0.2,0.6-0.2,0.9c-3.5,0-7.1,0-10.6,0C364.2,216.7,362.1,216.6,360.1,217.4z"/>
		<path class="st6" d="M376.8,217.2c0-0.3-0.1-0.7,0.2-0.9c0.2,1.4,0.3,2.7,0,4.1c-0.5,2.2-2.4,4.4-4.4,4.6c0,0,0-0.1,0-0.1
			c0.7-1.5,1.8-2.6,3.1-3.6c0.8-0.7,1-1.5,1.1-2.5C376.9,218.2,376.8,217.7,376.8,217.2z"/>
		<path class="st3" d="M372.7,231.8c-0.6-0.1-1.2-0.2-1.8-0.3c0.3-0.5,0.6-0.9,0.9-1.4C372,230.7,372.6,231.1,372.7,231.8z"/>
		<path class="st3" d="M376.8,217.2c0,0.5,0,1.1,0,1.6c-0.1,0.9-0.3,1.8-1.1,2.5c-1.2,1-2.3,2.2-3.1,3.6c-0.5-1.4-0.8-2.8-1.7-4.1
			c-1.3-1.8-3.3-2.1-5-0.6c-0.4,0.3-0.8,0.7-1.1,1.1c-1.4,2-3,1.5-4.5,0.8c-0.6-0.3-1.1-0.6-1.9-1.1c0.5,0,0.7-0.1,0.8,0
			c1.5,0.8,2.3,0.1,3-1.1c0.9-1.6,2.3-2.4,4.2-1.9c0.3,0.1,0.7,0,1.1,0c-0.3-0.6-1-0.5-1.3-0.9C369.8,217.2,373.3,217.2,376.8,217.2
			z"/>
		<path class="st8" d="M384.6,213.4c-2.4-1.7-3.4-4.3-3.9-7.1c1.4,2.3,2.8,4.6,4.1,6.9C384.7,213.3,384.7,213.4,384.6,213.4z"/>
		<path class="st8" d="M370.9,212.8c-1.3-0.5-1.9-1.7-2.5-2.8c-0.6-1.3-1-2.6-1-4.1C368.6,208.2,369.7,210.5,370.9,212.8
			L370.9,212.8z"/>
		<path class="st8" d="M377.7,213.2c-2.2-1-3.4-2.7-4.1-4.8c0.1-0.1,0.2-0.1,0.3-0.2C375.2,209.9,376.5,211.6,377.7,213.2z"/>
		<path class="st1" d="M387.1,208.5c-0.1-0.1-0.1-0.2-0.2-0.2C387.2,208.2,387.1,208.4,387.1,208.5L387.1,208.5z"/>
		<path class="st8" d="M370.9,212.8c0.1,0.1,0.1,0.2,0.2,0.2c0,0-0.1,0-0.1,0.1C370.9,213,370.9,212.9,370.9,212.8L370.9,212.8z"/>
	</g>
	<g>
		<path class="st9" d="M379.4,211c-1.8-0.2-3.3,0.1-4.7,0.8c-3.5,1.6-7,1.5-10.4-0.5c-1.7-1-3.6-1.4-5.6-1.7
			c-3.4-0.5-5.9-2.3-7.7-5.2c-0.9-1.5-2.1-2.6-3.5-3.5c-3.3-2-5.1-5-5.4-8.9c-0.1-1.6-0.7-3.1-1.6-4.6c-1.9-3.2-2-6.5-0.6-9.8
			c0.7-1.7,1-3.4,1-5.2c-0.1-3.8,1.4-6.8,4.3-9.2c1.3-1.1,2.3-2.4,3-3.8c1.6-3.4,4.3-5.3,7.8-6.2c1.9-0.5,3.7-1.2,5.3-2.4
			c2.8-2,5.9-2.4,9.2-1.5c2,0.5,4,0.7,6,0.3c3.2-0.5,5.9,0.4,8.2,2.6c1.5,1.4,3.1,2.5,5.1,3.1c3.3,1,5.5,3.3,6.6,6.5
			c0.7,2,1.7,3.7,3.1,5.3c2.4,2.7,3.3,5.9,2.6,9.4c-0.3,1.5-0.1,3,0.4,4.4c1.2,3.7,0.6,7.1-1.7,10.2c-1,1.4-1.7,3-2.1,4.7
			c-0.7,3.4-2.6,6-5.7,7.6c-1.9,1-3.5,2.2-4.9,3.8C385.9,210,382.8,211.1,379.4,211z M385,159.2c-0.7-0.1-1.1,0.3-1.6,0.8
			c-10.9,10.9-21.7,21.7-32.6,32.6c-0.1,0.1-0.2,0.2-0.3,0.3c-0.4,0.5-0.6,1-0.5,1.6c0.1,0.7,0.5,1.3,1.2,1.5
			c0.8,0.2,1.3-0.2,1.8-0.7c10.9-10.9,21.9-21.9,32.8-32.8c0.2-0.2,0.4-0.4,0.6-0.7c0.4-0.5,0.5-1.2,0.2-1.8
			C386.3,159.4,385.7,159.1,385,159.2z M392.5,166.6c0-0.9-0.3-1.3-1.1-1.6c-0.7-0.2-1.3,0-1.8,0.5c-11,11-22,22-33,33
			c-0.1,0.1-0.3,0.3-0.4,0.4c-0.6,0.8-0.5,1.7,0.3,2.4c0.6,0.6,1.4,0.5,2.1-0.2c1.6-1.5,3.1-3,4.7-4.6c7.7-7.5,15.1-15.2,22.8-22.7
			c2-1.9,3.8-3.8,5.8-5.7C392.3,167.7,392.6,167.2,392.5,166.6z M392.2,175.1c-0.5-0.1-0.9,0.2-1.3,0.6c-4.4,4.4-8.8,8.9-13.3,13.2
			c-3.8,3.7-7.5,7.5-11.2,11.2c-0.8,0.8-0.8,1.9-0.1,2.6c0.7,0.6,1.8,0.6,2.5-0.2c2.9-2.8,5.7-5.8,8.7-8.6c2-1.9,4-4,6-5.9
			c3.3-3.3,6.7-6.7,10-10c0.6-0.6,0.8-1.3,0.5-2C393.7,175.4,393,175.1,392.2,175.1z M376.8,159.3c0-0.2,0-0.5-0.1-0.7
			c-0.5-1.2-2-1.4-3-0.3c-8.1,8.1-16.2,16.2-24.3,24.3c-0.2,0.2-0.5,0.5-0.6,0.8c-0.5,0.9-0.1,2,0.8,2.4c0.7,0.3,1.3,0,1.9-0.6
			c3.6-3.5,7.1-7.2,10.8-10.7c4.7-4.6,9.3-9.2,13.9-13.9C376.5,160.3,376.8,159.9,376.8,159.3z M367.3,157c0.1-0.6-0.2-1-0.8-1.3
			c-1-0.5-1.5-0.4-2.3,0.4c-5.7,5.7-11.4,11.4-17.1,17.1c-0.1,0.1-0.2,0.2-0.3,0.3c-0.6,0.7-0.5,1.8,0.1,2.4c0.6,0.6,1.8,0.6,2.4,0
			c5.8-5.8,11.7-11.7,17.5-17.5C367.1,158,367.3,157.6,367.3,157z M376.8,205.3c0.7,0,1.1-0.3,1.5-0.7c5.7-5.7,11.5-11.5,17.2-17.2
			c0.1-0.1,0.2-0.2,0.2-0.2c0.8-1,0.5-2.1-0.6-2.6c-0.8-0.4-1.4-0.2-2.1,0.5c-5.7,5.7-11.5,11.5-17.2,17.2c-0.1,0.1-0.2,0.2-0.2,0.2
			c-0.4,0.6-0.6,1.3-0.3,2C375.7,205.1,376.3,205.3,376.8,205.3z"/>
		<path class="st10" d="M385,159.2c0.8-0.1,1.3,0.2,1.7,0.8c0.3,0.6,0.2,1.2-0.2,1.8c-0.2,0.2-0.4,0.5-0.6,0.7
			c-10.9,10.9-21.9,21.9-32.8,32.8c-0.5,0.5-1.1,0.9-1.8,0.7c-0.7-0.2-1.1-0.8-1.2-1.5c-0.1-0.6,0.2-1.1,0.5-1.6
			c0.1-0.1,0.2-0.2,0.3-0.3c10.9-10.9,21.7-21.7,32.6-32.6C383.8,159.5,384.3,159,385,159.2z"/>
		<path class="st10" d="M392.5,166.6c0.1,0.6-0.2,1.1-0.6,1.5c-1.9,1.9-3.8,3.9-5.8,5.7c-7.7,7.4-15.2,15.2-22.8,22.7
			c-1.6,1.5-3.1,3.1-4.7,4.6c-0.8,0.7-1.5,0.8-2.1,0.2c-0.8-0.7-0.9-1.6-0.3-2.4c0.1-0.1,0.3-0.3,0.4-0.4c11-11,22-22,33-33
			c0.5-0.5,1.1-0.8,1.8-0.5C392.2,165.3,392.5,165.7,392.5,166.6z"/>
		<path class="st10" d="M392.2,175.1c0.8,0,1.5,0.3,1.7,0.9c0.3,0.7,0,1.4-0.5,2c-3.3,3.3-6.7,6.7-10,10c-2,2-3.9,4-6,5.9
			c-3,2.8-5.8,5.7-8.7,8.6c-0.8,0.7-1.9,0.8-2.5,0.2c-0.7-0.6-0.6-1.8,0.1-2.6c3.7-3.7,7.4-7.5,11.2-11.2c4.5-4.3,8.8-8.8,13.3-13.2
			C391.3,175.3,391.7,175.1,392.2,175.1z"/>
		<path class="st10" d="M376.8,159.3c0,0.6-0.3,1-0.7,1.4c-4.6,4.6-9.2,9.3-13.9,13.9c-3.6,3.5-7.2,7.1-10.8,10.7
			c-0.5,0.5-1.1,0.8-1.9,0.6c-1-0.4-1.4-1.4-0.8-2.4c0.2-0.3,0.4-0.6,0.6-0.8c8.1-8.1,16.2-16.2,24.3-24.3c1.1-1.1,2.5-0.9,3,0.3
			C376.8,158.9,376.8,159.1,376.8,159.3z"/>
		<path class="st10" d="M367.3,157c0,0.6-0.2,1-0.6,1.4c-5.8,5.8-11.7,11.7-17.5,17.5c-0.6,0.6-1.8,0.6-2.4,0
			c-0.6-0.6-0.6-1.7-0.1-2.4c0.1-0.1,0.2-0.2,0.3-0.3c5.7-5.7,11.4-11.4,17.1-17.1c0.8-0.8,1.4-0.9,2.3-0.4
			C367.1,156,367.4,156.4,367.3,157z"/>
		<path class="st10" d="M376.8,205.3c-0.6,0-1.1-0.2-1.4-0.8c-0.3-0.7-0.2-1.4,0.3-2c0.1-0.1,0.2-0.2,0.2-0.2
			c5.7-5.7,11.5-11.5,17.2-17.2c0.7-0.7,1.3-0.9,2.1-0.5c1.1,0.5,1.3,1.7,0.6,2.6c-0.1,0.1-0.2,0.2-0.2,0.2
			c-5.7,5.7-11.5,11.5-17.2,17.2C378,205.1,377.5,205.4,376.8,205.3z"/>
	</g>
	<g>
		<path class="st11" d="M375.9,227.8c-3-0.9-6.1-1.3-9.3-1.3c-0.1,0-0.3,0-0.4,0.1c-1.1,1.4-2.1,0.3-3-0.2c-1.5-1-3.2-1.4-4.6-2.3
			c-2.7-1.6-5.6-2.9-7.7-5.5c-1-1.2-2.5-2-3.5-3.3c-2.3-3.1-4.3-6.3-5.6-10.1c-1-2.9-1.5-6-2.5-8.9c-0.4-1-0.4-2.2-0.3-3.3
			c0.2-1.8,0.2-3.5,0.2-5.3c0-3.4,0.6-6.7,1.6-9.9c0.3-1.1,0.9-2.2,1.1-3.4c0.1-0.5,0.2-1.1,0-1.6c-0.5,0.1-0.7,0.6-0.8,0.9
			c-1,2.2-2.2,4.3-2.8,6.7c-0.1,0.2-0.1,0.5-0.1,0.8c0,0.4,0.5,0.9-0.3,0.9c-0.5,0-1.1-0.3-0.9-1.1c0.3-1.5,0.8-3,1.4-4.4
			c1.3-3,3-5.7,4.8-8.4c2.3-3.3,4.6-6.6,6.9-9.9c1.5-2.1,3.5-4,5.8-5.4c1.1-0.7,2-1.7,3.5-1.7c0.5,0,1-0.4,1.5-0.8
			c1.7-1.3,3.7-2.4,5.2-3.9c0.6-0.6,1.6-1,2.4-1.1c3-0.4,5.7-1.6,8.5-2.5c1.1-0.4,2.2-0.8,3.4-0.9c0.4,0,0.9-0.1,1.1,0.4
			c0.2,0.4-0.1,0.8-0.4,1c-0.7,0.6-0.4,0.9,0.3,1.2c2.2,0.9,4.5,1.4,6.8,2c2.7,0.7,5.4,1.1,7.7,2.8c0.7,0.5,1.5,1,2.5,0.8
			c0.9-0.1,1.5,0.7,2.1,1.2c1.3,1.1,2.6,2.1,4.1,2.8c1.5,0.7,2.1,2.3,3.2,3.4c3.8,4.2,6.4,9.2,9.6,13.8c0.7,1,1.3,1.9,1.8,3
			c0.5,1.2,0.6,2.4,0.8,3.6c0.4,2.1,0.4,4.3,0.8,6.5c0.5,2.6,0.9,5.2,1.2,7.9c0.2,2.1,0,4.1,0.2,6.1c0.1,0.4-0.2,0.7-0.3,1.1
			c-0.6,1.3-1.2,2.5-1.4,3.9c-0.1,0.5-0.4,0.6-0.7,0.9c-1,1.1-2.1,2.3-2.1,3.9c0,0.2,0,0.4-0.2,0.3c-1-0.5-1.2,0.4-1.6,0.9
			c-2,2.5-4.4,4.6-6.8,6.8c-1.5,1.5-3.4,2.5-4.7,4.3c-0.2,0.3-0.6,0.4-1,0.5c-1.5,0.4-3,1-4.2,1.9c-1.4,1-3,1.6-4.6,2.4
			c-0.3,0.2-0.6,0.3-0.6,0.7c0.1,0.5,0.5,0.4,0.8,0.4c1.3,0,2.7,0,4-0.1c0.9-0.1,1.6,0.2,2.6,0.5c-0.7,0.5-1.2,0.5-1.8,0.5
			c-2.6-0.1-5.3-0.2-7.9,0.2c-1.6,0.2-3.1,1.1-4.8,1.1c-0.9,0-1.8,0.3-2.7-0.3c-0.3-0.2-0.8-0.1-1.1-0.1c-3,0-6-0.1-9,0.3
			c-0.3,0-0.6,0.3-0.7-0.2c0-0.4,0.3-0.5,0.7-0.6C374.7,228,375.3,228.4,375.9,227.8c0,0.2,0,0.3,0,0.4c0,0,0.1-0.1,0.1-0.1
			C376.1,228,376,227.9,375.9,227.8z M394,219.8C394,219.8,394,219.8,394,219.8c-0.1,0.1-0.1,0.1-0.1,0.1
			C394,219.9,394,219.8,394,219.8c0.1,0,0.3,0,0.1-0.2C394.1,219.7,394.1,219.7,394,219.8z M394.8,219.3c0.1-0.1,0.2-0.2,0.3-0.3
			c0.1-0.1,0.2-0.1,0.3-0.2c0.9-0.4,1.8-0.8,2.7-1.2c0.4-0.2,0.3-0.5,0.1-0.8c-0.2-0.2-0.4-0.5-0.6-0.2c-0.6,0.9-1.7,1.2-2.3,2.2
			c-0.1,0.1-0.2,0.2-0.2,0.3C395,219.1,394.9,219.2,394.8,219.3c-0.1,0-0.3,0-0.1,0.2C394.7,219.4,394.8,219.3,394.8,219.3z
			 M391.9,213.3c0.2,0,0.4-0.1,0.4-0.3c0,0-0.1-0.1-0.1-0.1C392,212.9,391.9,213.1,391.9,213.3c-0.1,0.1-0.2,0.2-0.2,0.3
			c-0.3,0-0.5,0.1-0.5,0.5c0,0.1,0.1,0.3,0.2,0.2c0.3-0.1,0.2-0.4,0.2-0.7C391.8,213.5,391.9,213.4,391.9,213.3z M389.6,213.3
			c-0.4,0-0.7,0.2-0.4,0.7C389.3,213.8,389.5,213.5,389.6,213.3c0.1-0.1,0.2-0.2,0.3-0.3c1.2-0.4,1.7-1.7,2.9-2.2
			c0.1,0,0.2-0.3,0.2-0.4c-0.1-0.3-0.4-0.2-0.5-0.1c-0.9,0.8-2.2,1.4-2.6,2.7C389.8,213.1,389.7,213.2,389.6,213.3z M347.6,213
			C347.7,213.1,347.7,213.1,347.6,213c0,0.1,0.1,0.1,0.1,0.1C347.7,213.1,347.7,213.1,347.6,213c-0.2-1.2-1-2.1-1.5-3.1
			c-1.8-3.7-3.3-7.6-4-11.7c-0.3-1.6-0.6-3.2-1.8-4.5c-0.3,0.5-0.2,0.9-0.1,1.4c1.3,3.9,1.8,8.1,3.6,11.9
			C344.9,209.1,345.7,211.5,347.6,213z M385.3,162.6c-0.1,0-0.1-0.1-0.2-0.1c0-0.2,0-0.4,0.1-0.5c1.7-1.4,3-3.3,4.6-4.7
			c1.7-1.4,2.9-3.3,4.7-4.6c0.5-0.4,0.8-1-0.1-1.2c-1.2-0.4-2.4-0.8-3.6-1c-1.2-0.3-2.5,0-3.6,0.5c-0.3,0.1-0.3,0.6-0.7,0.5
			c-0.6-0.2-0.1-0.5,0-0.8c0-0.2-0.1-0.2-0.2-0.2c-0.8-0.5-2.8-0.5-3.7,0.1c-1.7,1.1-3,2.6-4.3,4.2c-0.4,0.5-1,0.8-1,1.6
			c0,1.2,0,2.5,0,3.7c0,0.8,0.4,0.5,0.8,0.5l0,0c0.1,0.8-0.8,1.3-0.8,2.1c0,2.2,0,4.4,0,6.5c0,0.6,0.2,0.8,0.7,0.4
			c0.5-0.4,1-0.6,1.5-1c0.1,0.7-0.3,0.9-0.6,1.1c-1.4,1.1-1.8,2.5-1.7,4.2c0.1,1.5,0,2.9,0,4.4c0,0.9-0.4,2.1,0.4,2.5
			c0.7,0.4,1.2-0.8,2-1.1c0.1,0.5-0.2,0.9-0.6,1.2c-1.5,1-1.6,2.5-1.7,4.1c0,0.9,0.8,1.4,1.4,1.7c1.4,0.7,3.8-0.2,4.8-1.5
			c1.3-1.6,2.6-3.2,4.1-4.6c1.9-1.8,3.8-3.6,5.6-5.5c0.3-0.3,0.7-0.5,1.1-0.5l0,0c0.1,0.6-0.4,1-0.7,1.3c-1,1.1-2.1,2.1-3.1,3
			c-2.7,2.3-4.8,5.2-7.4,7.6c-0.4,0.3-0.6,0.8-0.4,1.3c0.2,0.4,0.6,0.8,1.2,0.8c1.2,0.1,2.5,0.3,3.7,0.5c0.5,0.1,1.2,0.3,1.6-0.2
			c1.4-1.6,3.1-3.1,4.5-4.7c2.1-2.5,4.3-4.9,6.8-7c1.7-1.5,3.3-3.3,4.8-5c1.1-1.2,2.4-2.3,3.3-3.7c0.2-0.3,0.5-0.2,0.8,0
			c0.4,0.2,0.4,0.4,0.1,0.7c-0.1,0.1-0.2,0.3-0.3,0.4c-2.1,1.9-3.7,4.3-6,6.1c-1.3,1-2.5,2.3-3.7,3.5c-1.7,1.8-3.4,3.5-5,5.3
			c-1.2,1.4-2.4,2.6-3.7,4c-0.4,0.4-0.7,0.8,0.2,1c2,0.4,4,0.9,6.1,0.8c0.4,0,0.6-0.1,0.9-0.4c2.5-2.7,4.9-5.4,7.2-8.3
			c2-2.4,3.9-4.8,6.1-7c0.7-0.6,0.9-1.2,0.7-2c-0.1-0.5-0.3-1.1-0.5-1.6c-0.8-1.9-1.8-3.7-2-5.9c-0.1-0.8-0.5-1.5-1-2.1
			c-0.2-0.3-0.5-0.7-0.8-0.6c-1.2,0.4-0.9-0.5-0.9-1c0-0.3,0.1-0.5-0.2-0.7c-1-0.8-1.7-1.9-2.7-2.8c-1-0.8-1.8-1.2-2.8-0.2
			c0-0.2-0.6-0.3-0.3-0.6c1.2-1.2,0.1-1.6-0.6-2.1c-0.5-0.3-1-0.7-1.4-1.1c-2-1.9-3.4-1.8-5.1,0.3c-2.3,2.8-5.1,5.2-7.5,8
			C386,162.4,385.7,162.6,385.3,162.6z M375.8,150.2c-0.3,0-0.6,0-0.8-0.1c-1.4-0.2-2.8,0.7-4.2,0.2c-1.7-0.6-3.1-0.1-4.5,0.9
			c-0.9,0.7-1.8,1.4-2.8,1.6c-1.8,0.4-3.2,1.2-4.4,2.6c-1.5,1.8-2.9,3.7-4.6,5.3c-2.4,2.3-4.6,4.9-6.6,7.4c-2.1,2.6-3.7,5.9-4.2,9.3
			c-0.5,4-0.3,8.1,0.3,12.1c0,0.3,0.2,0.6-0.1,0.7c-1,0.8-0.6,1.9-0.5,2.8c0.3,2.3,0.6,4.6,1.4,6.8c0.4,1.2,1,2.4,1.2,3.7
			c0.5,3.4,1.7,6.2,4.8,8.2c1.2,0.7,2.6,1.6,3.3,3c0.4,0.9,1.1,1.4,1.9,1.9c1,0.6,1.9,1.3,2.8,2c0.5,0.4,0.4,1.3,1.4,1.1
			c0.5-0.1,0.5,0.6,0.2,0.7c-1.6,0.9-0.3,0.9,0.3,1.1c0.6,0.2,1.2,0.7,1.9,0c0.3-0.3,0.6,0,0.8,0.2c2.8,2.2,6.2,2.8,9.6,3
			c4.1,0.2,8.3,0.1,12.4-0.9c2.7-0.7,2.7-0.5,1.7-3.1c-2.8-7.2-5-14.6-8-21.7c-0.2-0.4-0.2-1-0.6-1.1c-1-0.3-1-0.8-0.7-1.7
			c0.2-0.6,0.4-1.4-0.8-1.3c-0.6,0-0.5-0.5-0.5-0.9c-0.3-2.3-0.6-4.6-0.6-6.9c0-4.2-0.3-8.4-0.4-12.5c0-1.2-0.3-2.4-0.1-3.5
			c0.2-0.8,0.1-1.6,0-2.4c-0.2-2.9-0.7-5.7-0.2-8.6c0.1-0.6,0.3-1.4-0.2-1.9c-0.4-0.4-0.3-0.6-0.1-1.1c0.4-1,1-2.3,0.8-3
			C375.2,152.9,375.1,151.6,375.8,150.2z M398.5,190.4c1.2,0.1,2.1,0.2,3,0.3c3.1,0.4,6.2,0.8,9.3,1.1c1.2,0.1,2.1-0.4,2.6-1.4
			c0.8-1.4,2.1-2.5,3.2-3.7c1.1-1.2,1.4-1.8,0.8-3.3c-0.3-0.7-0.7-1.4-1-2.1c-0.3-0.7-0.7-0.7-1.1-0.2c-1.1,1-2.1,2.1-3.1,3.2
			c-1.8,1.9-3.3,4.1-5.5,5.6c-0.3,0.2-0.3,0.9-0.8,0.4c-0.3-0.3,0.1-0.8,0.4-1c2-1.7,3-4.2,5.2-5.8c1.2-0.9,1.9-2.2,3.1-3.1
			c0.5-0.3,0.9-0.9,0.7-1.4c-0.6-1.3-1.4-2.6-2.1-3.8c-0.1-0.2-0.4-0.7-0.8-0.2c-1.8,1.8-3.5,3.7-5.2,5.6c-1.3,1.4-2.1,3-3.4,4.3
			C402.2,186.6,400.7,188.6,398.5,190.4z M398.5,192c-0.3,0-1-0.3-1,1c0,0.7-1.1,1.4-1.7,2.1c-1.9,2-3.8,4-5.4,6.3
			c-0.5,0.7-0.9,1.5-0.2,2.2c0.8,0.9,1.5,1.7,2.2,2.7c0.3,0.4,0.6,0.7,1.1,0.1c3.6-4.2,7.2-8.3,10.7-12.4c0.3-0.3,0.8-0.7,0.3-1.1
			c-0.4-0.4-1.2-0.5-1.5,0c-1.5,2.3-3.8,4-5.5,6.2c-1.1,1.5-2.3,2.9-3.6,4.3c-0.3,0.3-0.8,0.9-1.3,0.4c-0.4-0.4-0.1-0.8,0.2-1.3
			c1.4-2,3.3-3.6,4.7-5.6c0.7-1,1.6-1.9,2.5-2.8c0.4-0.5,1.4-0.8,1.2-1.4c-0.3-0.6-1.2-0.5-2-0.6C399.1,192,398.9,192,398.5,192z
			 M414.9,193.9c-0.4,0-0.9-0.2-1.2,0.3c-1.8,3-4.2,5.6-6.3,8.4c-0.3,0.4-0.7,0.7-1,1c-2.2,2.1-4.2,4.4-6.2,6.7
			c-0.7,0.8-1.5,1.7-2,2.8c-0.4,0.7-0.1,1,0.5,1.5c0.7,0.5,0.9,0.1,1.2-0.3c1.1-1.6,2.5-3,3.7-4.6c1.1-1.6,2.4-3.2,3.8-4.6
			c1.4-1.5,2.4-3.3,3.8-4.8c1.5-1.6,2.9-3.3,4.2-5c0.3-0.3,0.8-0.5,0.6-1C415.8,193.6,415.3,194,414.9,193.9z M401.8,217.8
			c0.4,0.3,0.6,0.2,0.8,0.1c1.8-0.8,3.5-1.9,4.7-3.5c0.8-1.1,1.6-2.3,2.7-3.3c1.9-1.6,3.2-3.7,4.7-5.6c1.1-1.4,1.8-3,1.9-4.9
			c-0.1-0.1-0.2-0.1-0.3-0.2C411.4,206.2,406.6,212,401.8,217.8z M412.1,194.1c0-0.5-0.3-0.5-0.5-0.5c-1-0.1-1.6,0.6-2.1,1.3
			c-1.2,1.8-2.7,3.4-4.1,5c-2.1,2.4-4.1,4.9-6.5,7c-1,0.9-1.7,1.9-2.6,2.9c-0.5,0.6-0.4,1.2,0.2,1.7c0.7,0.6,0.8-0.2,1.1-0.5
			c2.8-3.1,5.6-6.2,8.3-9.4c1.9-2.2,3.6-4.4,5.4-6.6C411.8,194.7,412,194.3,412.1,194.1z M408.5,193.9c0.1-0.4-0.1-0.6-0.2-0.6
			c-0.6,0.1-1.2-0.6-1.8,0c-0.4,0.5-0.9,1-1.2,1.5c-2.1,2.8-4.6,5.3-6.9,8c-1.3,1.5-2.6,3.1-4,4.6c-0.6,0.6-0.2,1.1,0.3,1.6
			c0.6,0.6,0.8-0.1,1.1-0.4c0.5-0.5,0.9-1.1,1.5-1.6c2.2-2.3,4.3-4.8,6.4-7.2c1.3-1.4,2.3-3.1,3.7-4.4
			C407.7,195,408.1,194.4,408.5,193.9z M400.5,216.9c0.3-0.1,0.6-0.3,0.8-0.6c1.8-2.4,3.8-4.6,5.8-7c2.6-3.1,5.2-6.3,7.8-9.4
			c0.8-0.9,2.1-1.3,2.4-2.6c0.1-0.5,0.3-1.1,0.9-1.4c0.5-0.3,0.5-0.7,0.1-1.1c-0.4-0.5-0.7-0.1-1.1,0.1c-0.7,0.5-0.7,1.3-1.3,1.9
			c-2.6,2.4-4.5,5.4-6.8,8.1c-2.7,3.3-5.2,6.8-8,10c-0.3,0.4-0.6,0.9-0.8,1.3C400,216.6,400.1,216.8,400.5,216.9z M392.7,192.8
			c-0.1,0.4-0.4,0.7-0.8,0.9c-1.7,1.2-2.7,3-4,4.5c-0.9,1-0.7,1.8,0.3,2.7c0.5,0.4,0.7,0.4,1.1-0.2c0.8-1.3,1.7-2.5,2.7-3.7
			c1.2-1.7,2.9-3,4.2-4.5c0.2-0.2,0.5-0.4,0.3-0.8c-0.1-0.3-0.5-0.2-0.7-0.2c-1.1-0.4-2.2,0.6-3.3,0.1c-0.1-0.1-0.4,0.3-0.2,0.6
			C392.5,192.4,392.7,192.5,392.7,192.8z M386.2,198c0.3,0,0.4-0.2,0.6-0.4c1.5-1.8,2.6-4,4.7-5.4c0.3-0.2,0.5-0.8,0-1
			c-1-0.3-2.3-0.3-3,0.2c-1.4,1.1-2.5,2.6-3.4,4.2C384.7,196.2,385.5,198,386.2,198z M418.6,189.4c0-0.2,0-0.4,0-0.6
			c0-0.5,0-1.2-0.5-1.3c-0.4-0.1-0.9,0.3-1.1,0.7c-0.4,0.9-1.4,1.2-1.9,2.1c-0.3,0.6-1.5,0.8-1.2,1.5c0.3,0.7,1.4,0.3,2.1,0.3
			C418.6,192.1,418.6,192.1,418.6,189.4z M386.8,190.9c-1.1-0.2-1.9-0.4-3-0.2c-1.2,0.2-1.6,1.2-1.8,1.9c-0.1,0.8,0.8,1.5,1.5,2
			c0.3,0.2,0.5,0.1,0.7-0.2C385,193.2,385.9,192.1,386.8,190.9z M357.1,219.9c-2.3-0.9-3-3.2-4.6-4.7c-0.2-0.1-0.3-0.3-0.5-0.4
			c-0.3-0.2-0.7-0.7-1.1-0.4c-0.4,0.3,0,0.8,0.2,1.1c1.1,1.6,2.6,2.8,4.1,4C355.8,219.9,356.3,220.1,357.1,219.9z M391.1,218.8
			c0.8,0.3,1.4-0.1,1.6-0.4c1-1.3,2.4-1.9,3.7-2.5c0.3-0.1,0.7-0.1,0.6-0.5c-0.1-0.5-0.4-1-0.9-1.2c-0.5-0.3-0.5,0.3-0.6,0.6
			c-0.3,0.6-0.7,1-1.3,1.2C392.7,216.4,392.2,217.8,391.1,218.8z M393.9,224.3c-0.5-0.2-0.9,0-1.3,0.1c-2.1,0.6-4.2,1.2-6.4,1.5
			c-1.3,0.2-2.6,0.4-3.9,0.6c-0.3,0.1-0.7,0.2-0.5,0.6c0.1,0.3,0.4,0.1,0.6-0.1c0.3-0.4,0.8-0.2,1.2-0.3
			C387.1,226.5,390.5,225.6,393.9,224.3z M379.7,149.8c-1.3,0-1.9,0.9-1.7,2.4c0,0.3,0,0.5,0.3,0.7c0.3,0.2,0.6,0,0.8-0.2
			c0.4-0.5,0.8-1.1,1.2-1.7c0.2-0.3,0.8-0.5,0.6-0.9C380.6,149.7,380.1,149.9,379.7,149.8z M388.2,211.9c1.2-0.7,2.3-1.4,3.2-2.4
			c0.4-0.4,0.3-0.8-0.1-1.1c-0.3-0.3-0.6-0.4-0.9,0C389.6,209.5,388.6,210.5,388.2,211.9z M386.7,209.5c1.3-0.6,2.1-1.4,2.9-2.1
			c0.5-0.5,0.3-0.9-0.1-1.4c-0.2-0.2-0.5-0.3-0.6,0C388.2,207.2,387.2,208,386.7,209.5z M414.9,172.8c-0.3,0.7,0.9,3.7,2.1,5.1
			C416.8,176.3,415.9,174.1,414.9,172.8z M380.9,197.5c0.6-0.5,1.6-0.5,1.2-1.7c-0.3-0.7-1-1.2-1.5-1.7c-0.2-0.2-0.4-0.2-0.5,0
			c-0.1,0.2-0.3,0.4-0.1,0.6c0.3,0.3,0.3,0.8,0.8,0.8c0.7,0,0.6,0.4,0.4,0.9C381,196.6,380.7,196.9,380.9,197.5z M385.3,204.7
			c0.3-0.6,0.9-1.1,1.6-1.4c0.3-0.1,0.5-0.4,0.2-0.7c-0.2-0.3-0.4-0.5-0.8-0.2c-0.7,0.5-1.1,1.2-1.4,1.9
			C384.6,204.5,384.7,204.7,385.3,204.7z M378.7,147.5c1.1,0.5,2.3,1.1,3.6,0.5C381.1,147.5,379.9,147.2,378.7,147.5z M386.2,205.9
			c0.9,0.1,1.4-0.5,1.9-0.9c0.2-0.2,0.4-0.3,0.2-0.6c-0.2-0.3-0.5-0.3-0.8-0.1C387.1,204.8,386.6,205.1,386.2,205.9z M381.2,191.3
			c0.3-0.4,0.6-0.8,0.7-1.2c0.1-0.5-0.5-0.4-0.8-0.5c-0.6-0.1-0.8,0.3-0.8,0.8C380.4,190.8,380.9,190.9,381.2,191.3z M383.7,200.7
			c-0.3,0.2-0.6,0.3-0.9,0.4c-1.2,0.5-0.4,1.1,0,1.1C383.5,202.2,383.6,201.4,383.7,200.7z M387.4,216.2c0.1,0.7,0.3,1.3,0.7,2
			C389.2,217,388.6,216.6,387.4,216.2z M392.7,214.8c1.2,0,1.6-0.8,2.2-1c0.2-0.1,0.7,0.1,0.5-0.5c-0.2-0.3-0.4-0.4-0.8-0.1
			C394.1,213.7,393.6,214.2,392.7,214.8z M385.3,209.1c0.6-0.5,1-0.9,1-1.7C385.8,207.8,384.4,207.6,385.3,209.1z M387.1,210.8
			c-0.6,0.2-1.2,0.3-1,1.1c0,0.1,0.2,0.3,0.3,0.3C387.1,212,387,211.4,387.1,210.8z M372.9,146.4c-0.7,0.1-1.5-0.2-2,0.8
			C371.8,147.2,372.3,146.8,372.9,146.4z M372.4,149.2c1-0.1,2-0.2,3-0.3C374.4,148.8,373.3,148.6,372.4,149.2z M390.7,220.7
			c-0.4,0.2-1.1,0-1.3,0.7c0,0.1,0.1,0.3,0.2,0.4C390,221.5,390.6,221.4,390.7,220.7z M392.7,212.7c0.9-0.2,0.9-0.2,1.1-0.9
			C393.4,212,393,212.2,392.7,212.7z"/>
		<path class="st11" d="M360.2,231c0.3,0.5,1,0.3,1.5,0.7c-1.1,0-2.1,0.2-3-0.1c-0.3-0.1-0.7-0.1-0.7-0.5c0-0.3,0.3-0.5,0.5-0.7
			c0.4-0.2,0.8-0.2,1.2-0.2c1.5,0,2.9-0.5,4.3-1.1c0.6-0.3,0.7,0.5,1.3,0.3c0.5-0.2,1.1,0,1.7-0.4c0.3-0.2,0.7,0.1,0.7,0.6
			c0,0.8-0.3,0-0.4,0.1c-2.1,1.4-4.6,0.4-6.9,1.2C360.5,230.8,360.3,230.9,360.2,231z"/>
		<path class="st11" d="M368.5,229.1c1.4-0.8,2.8-0.2,4.1-0.6c0.1,0,0.2,0.2,0.3,0.3c0,0-0.1,0.3-0.2,0.3
			C371.4,228.9,370.1,229.7,368.5,229.1z"/>
		<path class="st11" d="M390.6,168c0.4-1,1.2-1.8,2-2.5c2.1-1.9,3.9-4.2,6-6.2c0.8-0.7,1.4-1.7,2.6-1.7c-0.7,1.2-2,1.9-2.9,3
			c-0.8,1-1.8,1.8-2.7,2.7c-1.4,1.5-2.8,3-4.3,4.4C391.3,168,391,168,390.6,168z"/>
		<path class="st11" d="M379.8,179.6c0.2-1.1,1.3-1.6,1.9-2.4c1.6-2,3.4-3.8,5.1-5.6c0.1-0.1,0.3,0,0.5-0.1c0.1,0.5-0.1,0.9-0.4,1.2
			c-2.1,2.2-4.3,4.4-6.4,6.7C380.3,179.7,380,179.6,379.8,179.6z"/>
		<path class="st11" d="M394.5,174.4c-0.2-0.9,0.5-1.3,1-1.7c1.3-1,2.1-2.5,3.3-3.5c0.9-0.8,1.6-1.9,2.9-2.2c0,0,0.1,0.1,0.1,0.1
			c-0.5,0.7-1,1.5-1.6,2c-1.9,1.5-3.5,3.4-5.3,5C394.9,174.4,394.7,174.4,394.5,174.4L394.5,174.4z"/>
		<path class="st11" d="M401.8,167.1c0.2-1.3,1.4-1.9,2.2-2.7c0.6-0.7,1.2-1.6,2.8-1.6c-1.7,1.7-3.2,3.2-4.8,4.5
			C401.8,167.2,401.8,167.2,401.8,167.1z"/>
		<path class="st11" d="M387.3,171.6c0.3-1.1,0.9-1.9,2.1-2.1C388.8,170.3,388.5,171.4,387.3,171.6z"/>
		<path class="st11" d="M389.3,169.5c0.2-0.7,0.3-1.5,1.3-1.6C390.5,168.7,390.3,169.4,389.3,169.5z"/>
		<path class="st11" d="M385.3,162.6c-1.1,1.7-2.2,3.5-4.2,4.3l-0.1-0.1c1.2-1.6,2.5-3.2,4.1-4.4
			C385.2,162.5,385.3,162.6,385.3,162.6z"/>
		<path class="st11" d="M383.9,154.2c-0.5,1.4-1.4,2.4-2.8,2.8C382.2,156.3,382.4,154.6,383.9,154.2
			C383.9,154.2,383.9,154.2,383.9,154.2z"/>
		<path class="st11" d="M378.2,160.5c0.4-1.3,1.5-2.1,2.6-2.8C380.2,158.8,379.4,159.8,378.2,160.5
			C378.2,160.4,378.2,160.5,378.2,160.5z"/>
		<path class="st11" d="M384.4,153.7c0.5-0.7,0.8-1.6,1.9-2.1C385.9,152.7,385.6,153.5,384.4,153.7
			C384.5,153.7,384.4,153.7,384.4,153.7z"/>
		<path class="st11" d="M381.1,166.9c0,0.6-0.2,1.2-1,1.4C379.9,167.5,380.3,167.1,381.1,166.9C381,166.9,381.1,166.9,381.1,166.9z"
			/>
		<path class="st11" d="M384.5,153.8c-0.1,0.3-0.3,0.4-0.6,0.5c0,0-0.1-0.1-0.1-0.1C383.9,153.9,384.1,153.7,384.5,153.8
			C384.4,153.7,384.5,153.7,384.5,153.8z"/>
	</g>
</g>
</svg>
